<mxfile host="www.draw.io" modified="2020-01-02T03:43:44.553Z" agent="Mozilla/5.0 (Windows NT 10.0; Win64; x64) AppleWebKit/537.36 (KHTML, like Gecko) Chrome/79.0.3945.79 Safari/537.36" etag="H35n1VnGk1LZ9BobX1sW" version="12.4.8" type="github" pages="4">
  <diagram id="_D0R9UUpjnsch7wpPBGB" name="Page-1">
    <mxGraphModel dx="1635" dy="866" grid="1" gridSize="10" guides="1" tooltips="1" connect="1" arrows="1" fold="1" page="1" pageScale="1" pageWidth="827" pageHeight="1169" math="0" shadow="0">
      <root>
        <mxCell id="0"/>
        <mxCell id="1" parent="0"/>
        <mxCell id="RJKqDijKu-WlhtUEkn75-31" value="" style="rounded=0;whiteSpace=wrap;html=1;strokeColor=#d6b656;fillColor=#fff2cc;fontSize=2;align=center;" parent="1" vertex="1">
          <mxGeometry x="7" y="310" width="513" height="230" as="geometry"/>
        </mxCell>
        <mxCell id="RJKqDijKu-WlhtUEkn75-20" value="" style="rounded=0;whiteSpace=wrap;html=1;strokeColor=#d6b656;fillColor=#fff2cc;fontSize=2;align=center;" parent="1" vertex="1">
          <mxGeometry x="7" y="35" width="513" height="275" as="geometry"/>
        </mxCell>
        <mxCell id="im6ebYkmrBhD7DaKBsn8-3" value="内管日常工作" style="text;html=1;align=center;verticalAlign=middle;whiteSpace=wrap;rounded=0;strokeColor=#000000;" parent="1" vertex="1">
          <mxGeometry x="40" y="108" width="20" height="120" as="geometry"/>
        </mxCell>
        <mxCell id="im6ebYkmrBhD7DaKBsn8-4" value="内管员工" style="shape=image;html=1;verticalAlign=top;verticalLabelPosition=bottom;labelBackgroundColor=none;imageAspect=0;aspect=fixed;image=https://cdn0.iconfinder.com/data/icons/ikooni-outline-free-basic/128/free-17-128.png;strokeColor=#000000;" parent="1" vertex="1">
          <mxGeometry x="80" y="55" width="70" height="70" as="geometry"/>
        </mxCell>
        <mxCell id="im6ebYkmrBhD7DaKBsn8-5" value="" style="shape=flexArrow;endArrow=classic;html=1;width=14.285714285714286;endSize=10.668571428571429;" parent="1" edge="1">
          <mxGeometry width="50" height="50" relative="1" as="geometry">
            <mxPoint x="150" y="94.5" as="sourcePoint"/>
            <mxPoint x="240" y="95" as="targetPoint"/>
          </mxGeometry>
        </mxCell>
        <mxCell id="im6ebYkmrBhD7DaKBsn8-6" value="登入内管系统" style="text;html=1;fontSize=10;" parent="1" vertex="1">
          <mxGeometry x="150" y="55" width="80" height="30" as="geometry"/>
        </mxCell>
        <mxCell id="im6ebYkmrBhD7DaKBsn8-7" value="" style="shape=image;verticalLabelPosition=bottom;labelBackgroundColor=#ffffff;verticalAlign=top;aspect=fixed;imageAspect=0;image=data:image/png,iVBORw0KGgoAAAANSUhEUgAAAIAAAACACAYAAADDPmHLAAAABGdBTUEAALGPC/xhBQAAACBjSFJNAAB6JgAAgIQAAPoAAACA6AAAdTAAAOpgAAA6mAAAF3CculE8AAAABmJLR0QAAAAAAAD5Q7t/AAAACXBIWXMAAAB4AAAAeACd9VpgAAAAB3RJTUUH4wEJBAc0dZBvGAAAFRZJREFUeNrtnXtwXFd9xz/n3Lu72tVKlmRJtmxHfiix8/AjTuo8WmcSk4ZMKCmQDjQwLUObkJRMmQ4tHUrKP7R0yjBtgWEo5VEgwwBJW2ImlCYkkBAyCXGwieNXbMeP+ClbL0srabWPe87pH2dX2tWupJUsae9K+/XIM7v3dfb8vud3fq9zLlRRRRVVVFFFFYsRYiYX3fWhB8vd7iqK4LkffGva10yLAEUEHwRagRYgCshyd8IiQgLoAbqAwdwD0yFCSQQoIvhrgXuAO4CrgSagptT7VTErSAMx4G1gF/BT4BUgmT2hFCJMKbBxwm8BHs78rSp3D1SRh0FgJ/BFYG/ugcmI4Ex2x3HCvwX4OvDnQH25f20VBQgBW4B3AXHgAKAATuz/7YQXTUiAccJ/APgasLncv7KKKbEEeCd2Wn4R8Do23TAhCUox2m4BPgusLPcvq6JkhICPAY+QmeYn8tyKEiDn5Bbgn6kKvxIRAD4N3DnZSVNpgIexln4VlYmlwKNAMxTXAgUEyDnpWiwBqqhs3AF8YKKDk2mAe5iGq2dm+bwqZg0CuA+oLXZwIgIEKVH1m8xNao3CNWZCARsjEMJQG0wTcBTaTBGCcA04psqY2cFmYF2xA+4EF7RiI3yTwgBXpkd4d7yHlSpJv3T5SaSZfcFoXoTJGEFzbZz7tx5gQ2sPQ8kgvzqxmueOdqB0PhFEUOOsTyBa0qBAnwuhToZAV4OMl4Eo1i0swEQEaJnoglw4wLvjPdw10ocSIA006jSfa1hLv3RHSSCE4T0bD/OezYfACBCGtU397O9s5Uz/EqTIDHMDcl0S59p45kKQzR4mLtHng9VA8xxgoikgio3tTwgD1BjFSpVECdAIlBCs8pIsVylMjrSCruLaZd2AsATQkrqaJK3ROCZXxUuQTWkraANowDWIRq/c/bRgISf5ftLxJoAUkn7pIo39LDEMSJcB6ZI7eXtKcmEwOvadMCQ9l1gihMibK8AMO/kPMUB80oh1FZcB93IuTgvBTyLNNOo0q7wkA9LlB9HlXHCCecxSWvL43o00RhJsWn6RoVSQnxzcwOlc9Q9gQB0LI2o0si2FUQL9dgh1rqr+5wqXRQAB7AtG+VzDWparFAPS5YITLDxPGE5fWsLnf7GdVQ0DDCZCnI/VoYzIl6sAMyRJ744i6hUogRl0qp7AHOKyCACWBP3S5ZIMAGbiOUUYYskgBy+0jn4WE91QCUyfO/a5ijnDZRMArIxECcNUYLVByTetYs5RLeFa5KgSYJGjSoBFjioBFjmqBFjkKPACqi734kIBASI1oXK3qYp5RAEBPvon95e7TVXMIZ769lfzPhcQoH1Vtf5zMaGAAFrrcrepinlE1QtY5JiVXIDfYXMQY+UFxoAytogFYxNTUoAUYykInTlvoWPBEkBgBeoZiKUlXSMOnSMOnXGHvqRDXAkSSqANhBxD2DEsCWqWh9XoX2NIEZKZ4qQFSoYFRwAprLD6UpKjAwFe7wtxZCBAT8IKXenJYx2OsIRYEtR0RD02NyW5tiHNiohHQFqtsJC4sGAIIAUklODApSC7uq3Qz8cdklrkTQGyhDRzUgkuxq22+HV3iKaQZn19mq1Lk2xrTtIU0guGCBVPAIFV8/suBXn6bIQ3+oIMe2JU2M4M6wqEGFs63ZuUvNwVYld3iJ/Vedy1Is72ZQnqAqbip4aKJoAU0J+S7DxVy3PnwwymxYRCz47YrBEIGYNP5HwW2eIW8opVBfaeBjgWczk5VM+e3hAfXDvEujpbsVypPKhIAgisFX+oP8gTJ2vZfymIoVDwWePNldBUIwgHoCUsWBmF+pAg7IIjYSQNcQ86hwydw4Z4GvqThhGvcNqQGcK81h3i1JDLfauHuW1ZglrXVCQJKo4AAhhRgidP1fLMuTCxlMxz38AKSAONNbBtueTO1ZJNzZL6EEQDgkjACj73Gm0g4UEsZUh4cKLf8MszmpfOas4OWlU/nggXRxy+dbSe3T0hHlw/SFtEVdyUUFEEEEBKW+E/eaoWZQqNOm1gWa3g7jWSe6+UXLNUUhsYc+NGp4IiRlyNC+GAtR/WNghub5eciRmeP6358VuKQ732ouz0IIXVRL/pCaGM4OENsYojQcUQICv8x0/W8tRpK/zxIzgg4R3tkke2umxsEbgZl9CbRnR7lBiZ+69ZInhgk8M9ayWPHVT86IimN2Hyphsp4Le9Qb56uJ5Hro6xooJIUBGh4Kza/++3rfC9ccI3wFWNgkdvdfmXHQGubxWjdsLlykFnooZtUcHfbnP50p0ud1whbUwgtyMF7OsL8rXD9ZwZdiumqLkiCKAMo2rfKzLy37lG8vW7A3z4OodowJ4/29AZ1b99peQrvx/gY1tdgjI/XCwFvNEX5BtH6oilZUWQwPcEkAIODwR55ly4qNp/R7vkM7e6rKm3Yd1SZZ+17scbkFNBGYgE4KHNDh+/0SUcKCTBgUtBnj0frgivwNcEEFg//4mTtcRSsqjw/+E2lxVRUdKoz8YIjIHBFJwfMpwdNPQlDJ4uPXBkDAQdeHCzw8dvcKlx80mggadOR9h3KVhS5LGc8LUR6BnYecr6+bkdaYC719qR31YrpjS4soGd0zHDMyc1R/oMp2OGnhHr3tUFYVWd4MoGwY52yeZWO8dPdl8DuAI+stFBAF/e45FQY4GkgZTk+8ejtIUHaA0r32YWfUsAKWx497mMKh1N0xpr8H3qZpeVJYx8Iax/v/MtxWP7FccHDEqPRf2yONhjeFbA44cV7+5weHCzw6o6MSUJAhL+9DqH/d2a/z2hRzWIFHBkIMDT58J8uGOo3N05cT+XuwETIaEET5+NMJjOX0EckPChax1W15cm/FgSPr/L4x9f8TjWbxekutKqepnzl/2uPwHfO6j4xPMeh3vNlFOCwcYPHr7epX0cYYSAFzvDnBx0fTsV+JIAWUPqjb581a8N3H6F5H1XOSWpVE/Ddw94/OCQIq1LywSKDCF2X9B84TWPC3GTv4lFEWgD1zUL/myTQ2Dc/hY2kVSDX+FLAmgDu7pDo1k9sEbWslrBI1td6oNTW/tSwE+PK769T+VNIaXClfCrM5p//Y0i4U19vTFw33qH21fJAs20ty9If8qfbqHvCCCASynJkYFAvtUP3L1GsrGlNNXfFTd8Z79iMH0ZK80FPH1C8fI5PaX2MEB9CO6/xsYisk2UAk4PuRzqD/hyGvAdAaSAo5lijmyHGWxi594rJW4JnSiBl85qDvdNPYdPBgEMp+CpY4qkmvp8reF3lku2tMo8WyCpBXt6Qng+9AR8RwDPwOt9IZI5+wJqY7N61yyVJcXYkwpePKNJlSC0KTtIwJ4L1m0sSQsE4V3rrBuZhQDeHAjSl3R8Nw34igACGEwXqn9Xwp2rbVZvKvkLYXP5R/qmFlhJbRLQlzAc7y/tfga4qU2yNCxGDVUpoCshfekN+IsAArpGHHoSzqjlbQw0hgSbmksb/QKIp63qnq2+TivoGSlNfxtgSQgaQ/lkTSnBySHXd+FhfxEA6Byx1buj1j8QDlgDq1RkS79mC9MpCzcGloQE6xryYwIGODvsony28MpXBDBAZ9zJ6ySDLeOKBkRJvr8Bwi4lTRelIpApKSsVQQnrm2RBXWFXwiGhha/sAH8RwEBf0skTnDGwMmozcKUI1BhoCAna60sjTCn3qw8J1jZMnXPIQgi4os7aLrkYSEninp/E7zMCKANxVdhB9SGBM42Whl24uU3OisGlDWxoErTXlU4oAzSFRb4nIGxFU1qLKSOL8wlfEUBjl2vlQmAFOp0+M8COdskV9aWP2okQcKxbV1dC9DG3AUFZ2GZbnuYj6eMzAmCKGFuCaY1+sPfoaBQ8sNkheBk7zSpj3c8/6HBmpcZvto3T2YCvCCCFIeTkd5Extm5/2jBw31UO71rnMJMtD5SBDY2Cv7qxtNxDHkTxsjRHgFvqTqnzBJ8RAMJOYQfFvemvzjVYw/Evb3C4eYVN0JRyD4PNIrZGBJ+8yeXqpulPIwJbcZRXjWzAEQZX+ksL+I4AS4L5w1UIu2InMYN3RmgDa5cIvnCHm1fgUUyg2oDS1n28Z53kX3e47GiXMyowNcC5QUN6nDtbF7DL0P3EAF9VBAlgeVjlJXAE0DlsiKUM4RJjAbnQBq6oEzx6i8sfX2148qjihdOa0zEzmuBxBCyvFdzUJrlvvWTbcknImXl1sdJwvD9/NZEBmkOKsKv9JH9/aQCwBMi1A7Kh3VJy8sXgZBaHXBw2XBg2RFzBslpBMLdwQ0BTjf2LJeHMoCGh7LXTfaYAhlLw1qXCQpIVEa8gNlBu+EoDaCwBlgQ1F+M2H5BN7pzoN6xtECWrT0dASsPeLs1TxzSvnrdr/Ea8zKvucoTraTjQY9jfo/jeQUVzWLCpVfCHHQ7bV0nqg6VvGSOEXV/YFc9/H4IrYE3UQ5J5pbdP4CsC2MSPoiPq0Rl3Rtfnj3jwyzOa29unrqoRAlIKfn5G8/QJxSvnDN2Zsq5s/V8xZL9XBi4MG86fMLx0RrOl1S4uvbdD0hIprQL5cJ+hd2RMAxigKaRZV+f5Sv2DzwgAEJKwuSnJr7vHsj8CW+BxJmZYs2RiIUgBvSOGL+9R/PgtxWDKaoLpxhFEZn1AQsGvz2te69T84pTk0VtcrmuenARpDT87qYmnx56rDXTUpVke9t+aQZ/NSHa0XNuQttuwZBsp4OygXaU7kQZwBJyKGT7zkscP31TEPRuLv5ywa3ZjCLBE+MTzaX5+So/W/hdrw9FLpqCEzBGwdWmKoOMz6eNDAmhjjaX19em80aIN/PgtxfmhwsIMKeBgr+FTL3o8+7b1vWY74OoIONZv+Ptfeex8SxUt70prePKo4uKwyatnWBZWbGlKlrtri8J3BACbft26NJlX/ycFHOo1PHZQ5aWLpYDXL2r++vk0v+mcunjzcuAIWxjy2Vc8/uuwKhjlr5zX7Dyq8rSOBrY0pmjzofoHnxLAGNjWnGRtnZffaQZ+dETzaqceddEGU/Dve9WslYBN2WHCunnf3KfY122fKTLE+MZexaUkecUsEdewrSXpu1Kw0d9T7gYUQ9ZqvmtFPM+AEwJ6E4b/3KcYStvPjx9WvHRGz6t/LTPrDL+026M/aTvx+4c0uzp1XhBLG9jalGJTY8qXox98SgCwWmD7sgQ3Lk3mdZ4j4NXzmu/ut/X6jx1QeSHX+YIj4OVzmh8espHFJw7nq3hjYFmN4r3tw9T40PjLwnduYBbZ2PkH1w5xasjl4sjYOoGUhv94w6MhJLgwPD+qvxiUgW/u8wg6gu54fjtcCe9bHWdDQ9q3ox98rAHAqtB1dR73rR4uqLMfyWzrVs6pVQCxFPSME742cGtrgh1tI75K/BSDrwmQxW3LElzflD8VjN/MsVwY3w5toC2ieP+aYSIVsHeg7wlggFrX8OD6QW5Y6l9jCqzwW2o0D64f5Ipaz9dtzcL3BABLgraI4uENMTY3+ZME2ljP5YH1MbY1+zPoUwwVQQAYU62PXB1ji89IkB35D22IcWtL0ldtmwoVQwDIhokVD20YZEtTavQNIOVuU1tE8RdXx/jd1mTZ2zNd+NYNnAjawKqIxyc3DvDs+TBPnY4wkJqdNQDTgclsQr19WYL3rxmumDl/PCqOAJBZhh3Q/NHqYa6qT/P941G7ongGFTwzebbOBHnetzrOjrYRIm7lvjegIgkAY6r/+qYUbeEBnj4X5sXOML1JO6vNtkbI7kAecQ1bm1K8t32YDQ3p4msZKggVS4AstIHWsOLDHUPc1prg5a4a9vYFOT3kjr4uZqZkyI52R8DyiGJLY4ptLUk2NaaocSp31Oei4gkAY7V6HfUeHfVD3JuUvDkQYE9PiDcHgnQlJCkl8jaLKggimfyVO66wbl1HXZqtS1NsaUrSFlajL6VaCMKHBUKALLJCaQhqfq81yc0tSfqSDicHXU4OuZwddulKOAykJCk9trewI+yijbqAoTmkWBHxWBP1WFfnsTysRit5FpLgs1hQBMjCwOjG0s0hRWuN4qaWJEpDQgvinl2l62mR2fLVrtgJO4awa1PLkrEpYKEJPRcLkgC5yJIBrNqPOIaIU1izn31JRPZtIn4q3Z5LLHgCjEd2MPt18+b5hi8IIOYxrWemkPx8b+BS7nxhWQkghCDtecRHElMKZraeVxuuwXWL7zVsMAx5g3hmBitRZ4CQDBFxastKgrIRQAhBf2yQF17dzdkLXfP23PVr27n9phsJBQMFx17v381Lvc+TNuk51wQGQ51bz47mu1gfvWbefv94lI0AWmte3XuA/UeOzesUsHv/mzQ3NnDjxmtGtY5A0JW6yAs9z9KX6p239vSlevl599OsDLcTdaJl0QRlywam0h6dXd0gBGIe/5RSnL/YnTflCCHoTl4k5g0ghUTM0z8pJMPeMCldvvqBshHAGIMukymujSmwOTzjzYsdMkFvlOm5FVYPMLvwQUGhD7CICVAFVAmw6FElwCJHlQCLHFUCLHJUCbDIsYgJUE0HQhkJUO51fePDvWV7jYMY/a8smIgACWAmWzSXDNd1qauNYGayk/NlYkldtIAASwINBGVwXuPxxhgcHBzhXP7NZoiJkkE9QAyon7MHOw43b9lIfCTBxZ4+tJnbpd52c0jB6pXL2bThyrxj2mhW1KxiW+Ot7Ol/jbROzWFLxhAN1HFL03aiTt18EE+U9OXrh48B1AH/B2yf0xYJQXxkhO5L/XiemnMCBFyXlqZGwjWhInF/gTIeXckLxNXwnItDIGgINLI02DzHTwLsYH4nsGvr1fnkn0gDDAK7mGMCGGOIhGtYE26bH6MgkwQqnvQxOMJhZc0V8zYlG2Pma8p5GzhZ7MBk9QA/BR7CaoM57IRMWZRPivQ0eiE6CM8ARatuCozAHBXxCrCz3C2v4rJxHPjORAcncwOTwBeB0+X+BVXMGAr4CnAY8gb3KIoSIOfEvcA/YclQReXhf4BvT3ZCKYGgx4CvM8dxgSpmHb8EPoU16IuOfpiEADkXJIG/Az4N9Jb7V1UxJRTwBPAR4NRUJ5caCh4B/g24H3iBhWgnLwwcB/4G+Cg5wp9o9EOJHm8mOJRFM/AB4D5gMxAt969e5Ehj/fxnsNb+4dyDkwkfphHyGEcCgFpgHdBU7h5YxBBY7XyScX7+VILPvcG0UIQIVfgIpQq+iiqqqKKKKqpY3Ph/FhJTfpqtS3gAAAAldEVYdGRhdGU6Y3JlYXRlADIwMTktMDEtMDlUMDQ6MDc6NTIrMDg6MDDmJdXEAAAAJXRFWHRkYXRlOm1vZGlmeQAyMDE5LTAxLTA5VDA0OjA3OjUyKzA4OjAwl3hteAAAAEN0RVh0c29mdHdhcmUAL3Vzci9sb2NhbC9pbWFnZW1hZ2ljay9zaGFyZS9kb2MvSW1hZ2VNYWdpY2stNy8vaW5kZXguaHRtbL21eQoAAABjdEVYdHN2Zzpjb21tZW50ACBHZW5lcmF0b3I6IEFkb2JlIElsbHVzdHJhdG9yIDE5LjAuMCwgU1ZHIEV4cG9ydCBQbHVnLUluIC4gU1ZHIFZlcnNpb246IDYuMDAgQnVpbGQgMCkgIM5IkAsAAAAYdEVYdFRodW1iOjpEb2N1bWVudDo6UGFnZXMAMaf/uy8AAAAYdEVYdFRodW1iOjpJbWFnZTo6SGVpZ2h0ADY3NUX13/0AAAAXdEVYdFRodW1iOjpJbWFnZTo6V2lkdGgANjc11gSPoAAAABl0RVh0VGh1bWI6Ok1pbWV0eXBlAGltYWdlL3BuZz+yVk4AAAAXdEVYdFRodW1iOjpNVGltZQAxNTQ2OTc4MDcyLcwqugAAABJ0RVh0VGh1bWI6OlNpemUAMzg5NzBCydxh/AAAAGJ0RVh0VGh1bWI6OlVSSQBmaWxlOi8vL2hvbWUvd3d3cm9vdC9uZXdzaXRlL3d3dy5lYXN5aWNvbi5uZXQvY2RuLWltZy5lYXN5aWNvbi5jbi9maWxlcy8xMjEvMTIxMDEyMy5wbmdtcQiSAAAAAElFTkSuQmCC;" parent="1" vertex="1">
          <mxGeometry x="240.5" y="70.5" width="49" height="49" as="geometry"/>
        </mxCell>
        <mxCell id="im6ebYkmrBhD7DaKBsn8-8" value="" style="shape=flexArrow;endArrow=classic;html=1;width=14.285714285714286;endSize=10.668571428571429;" parent="1" edge="1">
          <mxGeometry width="50" height="50" relative="1" as="geometry">
            <mxPoint x="294.5" y="94" as="sourcePoint"/>
            <mxPoint x="400" y="95" as="targetPoint"/>
          </mxGeometry>
        </mxCell>
        <mxCell id="im6ebYkmrBhD7DaKBsn8-10" value="进入内管工作页面" style="text;html=1;" parent="1" vertex="1">
          <mxGeometry x="300" y="54.5" width="80" height="30" as="geometry"/>
        </mxCell>
        <mxCell id="RJKqDijKu-WlhtUEkn75-1" value="" style="shape=image;verticalLabelPosition=bottom;labelBackgroundColor=#ffffff;verticalAlign=top;aspect=fixed;imageAspect=0;image=data:image/png,iVBORw0KGgoAAAANSUhEUgAAAJwAAACACAYAAAD+rACtAAAABGdBTUEAALGPC/xhBQAAACBjSFJNAAB6JgAAgIQAAPoAAACA6AAAdTAAAOpgAAA6mAAAF3CculE8AAAABmJLR0QAAAAAAAD5Q7t/AAAACXBIWXMAAACWAAAAlgBxRv7wAAAAB3RJTUUH4wEJBAMMOf4SggAABkxJREFUeNrt3VtP22Ycx/Hf4ziJAyFHQqAHWkoprO+h15OmXU+721vYm9r7mNSb3U7TtFasLU05hWNDzgf72UVCW4kcYLb/tsPvI6FIxOSxnS8+JQSAiIiIiKJGjfvmjz//GvR8kU9spfD91Sl+Od+H9nmswh+/3/ieOWX6BIDt0a3f80Zyvt3IeP28KgA9AG9HtzdMC24FwG8A1gE4Aa4g8piPWw8DQAXADwD2x01gzvjhHIBsYGuGoiiHYTtjGTN+mLtSuqupzcwKjshTDI5EMTgSxeBIFIMjUQyORDE4EsXgSBSDI1EMjkQxOBLF4EgUgyNRDI5EMTgSxeBI1Nh3/GrN913OK61Hz6/jAEq5f8A7GhvccjEX9Hohn9gA0kkbiHUDGX9s4m923wHDP555PbqlOWJpB4u2PeHZd60C4BWASmln58ad3MLdU0EdNPEYjkTxLJVEMTgSxeBIFIMjUQyORDE4EsXgSBSDI1EMjkQxOBLF4EgUgyNRDI5EMTgSxeBIFIMjUQyORDE4EsXgSBSDI1EMjkQxOBLF4EgUgyNRDI5EMTgSxeBIFIMjUQyORDE4EsXgSJTp/iGCpwL4rFpp8/KZfZEPznEcXFzWUG+24Nh20LPjMQXTjCGfyyCzlA56ZjwR6eAcx8G/7yvY+3SIwWAQ9Oz4JmVZ2N7awIPVUtCz4lpkg1NK4eTsAh8qB3AcZ653q+1OB7vv9pDNpJFeXIj07jWyJw1aa5yeX8Keu93oTUoptDsdXNUbQc+Ka5ENDgC0E93f9Dsvq56P5Y1scEopFPJZGMb87kqvaa2RTCbm4sQhssdwWmusrhRxcVnG4fEJHMcJepZ8E4/Hsfn0MdLpaB+/AREODgBM08TL7WcoFrK4uKxhMJi/4zkrmUCpVEAxnwt6VjwR6eCAYXSPHqzi4Vo58r/94yiloJSam2WLfHDA16vw83ppZF5iAyJ80kDRxOBIFIMjUQyORDE4EsXgSFSoLotcX29yHA3t8n8Wq9HjGYZx68sKX8d3XP/HZAXAMIw7XUMLenwJoQquXm9i/6iKRqMJ24OXqhKJOIr5HB6srsA0YzOnv7is4fD4BK1WG47LJ0lBwbISKC0XUC4tz3zNV2uNk9NzVE/P0e50XUeilMJCysJauYRiIed6XXolFMEppVC7quPPv9+iXm96+tjH1TPUG0189+IZDGP8EYRSwMnpBf76ZxedTtfT8Y+qZ9ja7OLZk0dTp/t0cIw3ux88fyNp9eQcL3c2sVYOx5s3Q3EM5zgO9iqHqNebX17K8eoLAA6Oqji/rE18JaLft/H+4z46na7n49u2jb3KARrN1tjxlVJotTv48HEfg8HA8/G7vR7e7+2j1+8H/TQDCElwvV4fl7Ur3x5/MLDRarXH3jd8wtuoN5q+vDSmlEK/10e73Zk4TaPZQnsUux/jdzpddLu9ULz0F4rgDMOAGZt9jPW/fbO1GycWiyFmGPDt2Hp08jKJGYv5+r4+ZUwfX1Io5iIeN1FeKWJ4buUtrTVSVhL5XGbi/QspC8ViHnB9bjj+8ZfSixP/FuH6/mxmyZezSa018tkMLCsZirPVUAQHAOuP1vD4YRmx0ZZOa7dfw5W7sJDC9vOnWEovTlzhhqHwfGMd5VLxy5bAi/GVUshm0tjZ2oBlJSYueyIRx87WBvK5zOgyhhfjA4ZSWC7msbX5BGYsHE/12E3K6fkZAKwDeD26FWE7Dmq1OhrNFhytXW3vNICEaSKbXcLiQmr2ilBArz/A51odrVYbGu63t8lEArnsEiwreYvxh8dan2t1dLruzpSv5z2VspDLLiGZiPt3uHBTBcArAJVScfnGnaG4LHItZhgoFnKeXze6za5EayBumlhZLni7UPp2l7Cv/25htbx8i6nvtuwh2JN+EarggODfbHjfx/dbOHbsdG8wOBLF4EgUgyNRDI5EMTgSxeBIFIMjUQyORDE4EsXgSBSDI1EMjkQxOBLF4EgUgyNRDI5EMTgSxeBIFIMjUQyORDE4EsXgSBSDI1EMjkQxOBLF4EgUgyNRDI5EMTgSxeBI1Kzggv/Ya4qaqc1M+0BCG8DRaBr3/xaG7gMDw2bsSRNMC64K4CcAcfjx8d40jxSAPobtjDUtuAGAj0EvARERERERBes/2SE1Q7nsQWUAAAAldEVYdGRhdGU6Y3JlYXRlADIwMTktMDEtMDlUMDQ6MDM6MTIrMDg6MDBrhHtEAAAAJXRFWHRkYXRlOm1vZGlmeQAyMDE5LTAxLTA5VDA0OjAzOjEyKzA4OjAwGtnD+AAAAEN0RVh0c29mdHdhcmUAL3Vzci9sb2NhbC9pbWFnZW1hZ2ljay9zaGFyZS9kb2MvSW1hZ2VNYWdpY2stNy8vaW5kZXguaHRtbL21eQoAAABjdEVYdHN2Zzpjb21tZW50ACBHZW5lcmF0b3I6IEFkb2JlIElsbHVzdHJhdG9yIDE5LjAuMCwgU1ZHIEV4cG9ydCBQbHVnLUluIC4gU1ZHIFZlcnNpb246IDYuMDAgQnVpbGQgMCkgIM5IkAsAAAAYdEVYdFRodW1iOjpEb2N1bWVudDo6UGFnZXMAMaf/uy8AAAAYdEVYdFRodW1iOjpJbWFnZTo6SGVpZ2h0ADk2MCfYXQ4AAAAYdEVYdFRodW1iOjpJbWFnZTo6V2lkdGgAMTE3Mme5P+MAAAAZdEVYdFRodW1iOjpNaW1ldHlwZQBpbWFnZS9wbmc/slZOAAAAF3RFWHRUaHVtYjo6TVRpbWUAMTU0Njk3Nzc5Mu5jAecAAAASdEVYdFRodW1iOjpTaXplADIwNDI5QheTWOcAAABidEVYdFRodW1iOjpVUkkAZmlsZTovLy9ob21lL3d3d3Jvb3QvbmV3c2l0ZS93d3cuZWFzeWljb24ubmV0L2Nkbi1pbWcuZWFzeWljb24uY24vZmlsZXMvMTIwLzEyMDU5ODQucG5nzyh6IQAAAABJRU5ErkJggg==;" parent="1" vertex="1">
          <mxGeometry x="407" y="69.5" width="60" height="50" as="geometry"/>
        </mxCell>
        <mxCell id="RJKqDijKu-WlhtUEkn75-6" value="" style="shape=callout;whiteSpace=wrap;html=1;perimeter=calloutPerimeter;labelBackgroundColor=none;rotation=180;fillColor=#f8cecc;strokeColor=#b85450;" parent="1" vertex="1">
          <mxGeometry x="339" y="105" width="177" height="70" as="geometry"/>
        </mxCell>
        <mxCell id="RJKqDijKu-WlhtUEkn75-5" value="卷烟大户" style="text;html=1;strokeColor=none;fillColor=none;align=center;verticalAlign=middle;whiteSpace=wrap;rounded=0;labelBackgroundColor=none;fontStyle=4;fontColor=#0000FF;" parent="1" vertex="1">
          <mxGeometry x="450" y="145" width="57" height="24" as="geometry"/>
        </mxCell>
        <mxCell id="RJKqDijKu-WlhtUEkn75-4" value="" style="shape=image;verticalLabelPosition=bottom;labelBackgroundColor=#ffffff;verticalAlign=top;aspect=fixed;imageAspect=0;image=data:image/png,iVBORw0KGgoAAAANSUhEUgAAAEgAAABICAYAAABV7bNHAAAABGdBTUEAALGPC/xhBQAAACBjSFJNAAB6JgAAgIQAAPoAAACA6AAAdTAAAOpgAAA6mAAAF3CculE8AAAABmJLR0QAAAAAAAD5Q7t/AAAACXBIWXMAAABIAAAASABGyWs+AAAAB3RJTUUH4wEIFy8fIq1CvgAAIcBJREFUeNrtm3mYHWWd77/vW8vZe+90J91Jp5N0ZyV7wCRAiA6LCIyKAwgqLncUvTLqsDiPM88og46iwB1BYOBeQNlDIibssgUDSQhJyE66O+lOpzu9r2et9X3f+0ctp87pBsGLyx+3nud9qk5VnaU+9ft9f8tbh+DPtKw/5xxks1lceOGnsG7dOThn/To0NTXLl372s4m6urrqWCxWnSgpqaKEVjDG4rZtKwCEJEsmJTRlmuZIMpkczmYzQ+3t7cP33ndvVgjB77vv/2D/vnfwm988gI99bDVe2/r6n+sSAADko/ywq7/0JbS2tuCyy67A2Wevw8pVK/CjH/6wvKmpubG8vGJRLBo9TVHVubIs1wOkkhASEQIhxpnMGadCAIQSTggswYUhBM9wzocsy+zKadrRZDJ5cGhw8N2DBw90PfDgA9kNGzZix443cccdd+D8887D71966W8T0A3X3YBsNoO1Z56FK6/6PG64/vrYypWr5tdMqVkXTyTWKYp6Ggip4YxHGGNgnEFwDs45hBAQQgAQEML9UcT5aULAPQYIQABIM2afMgx9XyqZer2vr/fNp5/Z3PHzW24zX331FWzZ8hTmz1+ABx588G8D0C//65c4cGA/Vq06A9d88xu47dbbKubOm3dmVVXVZ6KR6NmUStMZY4plW7AtG6bNoZsQWY2RrCFEOkdhGjphnIPzPJ1QKCzisSjKYpxEwxJiIQGJMjDbgmXZEAAooRrn9rF0Jv3y4MDAlr17dr/zne9el3344V/j7rvuwLpzPo6nn3nmrwPokosvwpIlS6HlNFx/44144P77S5YsXXpOdfWUL0QikfVCoMq2bZimhZxui7E0x0gKGMlIGM2oSOky0Q0Bw5bAGIcHyLMmQgBKAJnaUGSC0ihDbQXQMEVBXbWEkjCHZenQdRMghFOC7mw280JPb88jL774/J7LLvu8cfvtv8Dy5Svwzt7d2LP3nb8coH/5/o342S0/x6aNm3DVlZfTxzdsXFFfN/3rsVj8YgHUWJYF3TAxljRE/zhBXzKKoXSIJLMUWR0wLAHGPCAcCLoYXCuC8Pfn3Y9DpgyJiEBjLcVpjQpmTVVAYSCbzUGACEJERyqZfKztWNtD3//+Dcd/+MMfYc2as3DBBX/3JwOSP8zJjz76KFpajmJ4aBhPPPF4xdY/vHllZWXltyiV5um6QXKagcExU3QPy+gdKyX94yqSOUA3OBhjDgD3gj0I8OHAgeLBgYDwIAIQgsPggJEChpI29h03Ma0CWNYUwpLZZQhLJklnsrMTJaX/smTJ0nW/fvChO4+1tT7XMKNBC4UUzJ+/APv3H/jQgKQPeuIb27ahr78f1113Pba+9tqCFStX/aimpvafZFmp03WDDAxnREs3yIHuBDnaEyVdQwSpLIdpcwjuXCQRATBwLQT57YL9RRYEcP84gQDjBGNpgZYuAy1dOaiqjJnTEoCwJdvmDWVl5WfPmjU71tbW0rpl83Pp1159FRdfdAl27NzxoQD9URf78c03o2bqVEiU4jvXXktf/P1L6xpmNvwoFoufads2HRlNinc70jjSpZKOQQUjKQ7b5u5FoeCiEXQl31qQfy34BEAIQCxwR/d8IQQ4F5Cojbn1Ei5cXYZpFQRjY0lIkmSYpv671taWm//5uu+9e8Xll6Ourh633X7bR2dBV151FSRKsXHjRvmhhx769Jympp+XlpatEoKTnv5xsfOIhl3HwqStlyKVZRB8opU4oHjBa4EiAP7F84lwAmvf/UQeEoEAF8DAGMORExmoMkXzzHIYhi4TKi2oqamZv3bN2uM/u+Vnp5qbm7Fq5Sq8s++DCff7Atr2h20YHR3Fpo0b5f/86U8vmz1nzi2lpSXNjDG0tI/glb069hxXSO+wZzXIu0TwoiazGg9Y0LoKLp67Rvje4ESR1REAminQelLDWFLHojmVoLCJbfNZVVWVp61du/bYj3/y4866ujrU19XhRGfnn+5ijz7yCHRdx/e++z269Q+vf2bOnDm3lpSUzDQME7sPD4rX3tHIkU4gozEQ152K7/pEMAExFrzAckSBxU10pwJAxW5Y8DneeQwLZsi4/BO1iMg6dMOCLJO3W1tbvvet//nNHfV1dbjk7z+Ne+65+8MDuvGGGxEKqfiPm2/Gju3b18+fv+DO8vKyhYZlY+e+fryy10BLN4dm8AJ3mgDHAxKwEi6474aEAork5DyeYHPGYVpObiQ4ByHFn+2dy/M3JPD9PJA6MM4xqxb44gV1SIQtmJYNAv7K7t27vvODf/3Bu4QQPHj/g/jK177ywQGtXbsW27dvx/DQEHbt2rVg8eIl/11dXX0WoRRvHRwUL+7SSGs3h24yV1sKf2DQCoT/o519igxUlsionxJC3ZQwyktkVJcpUGXqn6sZDEPjJobHDHT1Z3GqP4eRpAGbcffHBqKf73K8QJeCrznnmF1L8bVLGqBSDTZjzDKNx59/4bkbv/Llr/StXLXiw1nQv/3rv2H58uXo7e2tWL9+/a01tbVXq6pCW0+M49mdGg6dENADllOc24jgnYaA4BylcRkLZ0exYl4J5s6IoqpMQVglIMSpuwrCOneAMiaQMxgGRk3sb01i+74hHOvOuKCKXasIEIKu5kBaOkvFly9ugJFLQVbk3OjI0E9/8fNbbj/vvPNzN//kZhBC/jigu++6Gx3tHbjnv++iL/7+5W/V1dX/NBwOxQdHNby4S8e+dgmpnO28yQfBA2G4MDoRIrCkKYHPnFONeQ0RREKOpXh1lwiIsFeYegWss3bzJ0IwmmJ45e1BPLvtFEaSpu+W8EAUA+JBcAC4jXOWJXD5udMxNjqGcFjtbm09eu03v3XN04tPO00cPHRoUkAFUay8vBz/ecvPsGLFylXTptX9BCB1qbSGNw7kxIFOlYynbZAPGJ04F6guU3DNpXU4bXYUlAq/3gouhRU8JhzjXIDZNkKKwMJZJZg2JYJjJ8eRylgTxblI9AsjKtAzmEN5XMKc6aXIanppeXlZdXV11fbNWzaP3XTTTe8P6Ibrr8fy5cuxY/v2ksWnLf6BqoTO1Q2DHDyexf7OKOkfYb7ZBsE4FxLUhDyg2ioVF6yuQEghATAeCVEAYnJonuo472fMxvSaKGoqwzjUNoyczpzv8nUnb9kCPPA9AoRw2BzoGchgUVMZIooAleS6stLS8TNOP/3tT//9Z+x3j747ARD1NrLZDP7x6/+IxYsXrw+HIxdbtkX6hrM40qWgf9QpMAvCrm/WvGD4/g/ntVeUBqv1wlHsZnC1ifiQKCWglIJSCsuysXJBJS5YUwsC2/98z92dkiRflkAIELdMoQAGkwzPv3kK0WgMpmGGKiurr7juuusWb9z05KQWRAHgC1dehfXrP4F77rq7orKy6ouciymaZuJIJ9A7pkLTbQABEOATwBQOVwO4AOcMnDnNMcacopVzBu62OHhRq6OwcUZcQLRggDOcu7oe06slMG77III3j3i6iLxGCggQSrCvLY3D7UlEo2FwgbnNzfM+V1KSiJ511lmTAzp86BA+9w+fQ+Os2WcpinqObVvoGtDRPhBGKusCAUcwWSsc3BVLt0vIPfF04DDugAnCEZyDMadnZBgmbJv5cAo1JAjLAcQFMKUiguXzyyGYWVgEB7sDcCzaO06IAIWAbgEv7eqFIAo441JJadnFX/3K1xZt27YNoVCoAJAMAF+/5hr88N//PX7hhRd91ma8UtNNHO0CRjIyTIs5cArS/slEMOB6Iu9WNmNgNgF3G2G6YaF3IIn2kyPo7k9hZFwH50BpSQQL5lRj6fxpKC+NTBBzT8gpJQAoKCFY1FSFLVs7wSDnoZC8BeU7Ad5wrkEiwIkeDUfak1jYGEU6w2Y3Nc29gBBy8IrLr9Cf2PBEHtDaNWuwbt06HDvWNl9VQ2eblo2BER1dwxFoBvcz02I4xVpU3OQSvgUxMA7kciYOtfZh2+5OHGlPYjwrwYYKEBkgBAQGXn57DEvnDuJLl8zDzLpSt7tIAsJNfFBCCNRURhFROdIm96Mg8QMIz4cDIgKpifMxJid469AgFjc1A8gqFZVV51762Usfe/yJx48XAEqnU1i4aCHe2PbGOQKot20Lx/sYxnIKLNsu6tMEcg8UwirWACE4spqF/uEshoc1PP+HVuzYP4yMHYesVoNGFKjefXffa3GBXe/moKon8M3L5iERU93PJy6UvCUJAPFoCPEIRUpnIJQiEPMgXJwFXUoXoGNFBMdPZdEzmEVlQoVtRxbMX7BwBSGkIxaL8mw252jQlVd+Abf+4hfl4XBknWXZciZno2NAgWHBTbbyGa5nFcITv0DUEMKxNm9NIDA0ZuCejcfxs/v34+XdGeh0KkKxSkiK6l5E/r1OU41DgGBfWwrt3SkwxmDbAd0qiHwElAKU8EJRLmjhetoZyPY9SyMCOUNgf+sowuEwCCFltbVTz6woL4t/77v/nBfp8847H7Nnz5lFKF1k2xYGRm0MpxU3rHPfGryLRyB7hQ/Og1gYzWybo3sYGNEroMZqICmq+3nMhxK0OM4dYLrBMJrUYduWK+7cH5znh6abSKU1aIaJnGYilzOQzRnutjO0nAVNM6HpFnTdgmFYME0blsXAmMDhjnGYNkAppYlEyYrVq9fW3vzjm/Mutmz5UoyOjp7GbF7DGMOpYRuaQf07BiH8uxDUmmKhDjbggwkbJQRCkgqhFje/eFBQOSihIGAwDNO3Fi/ce6E/pCoYHE5jcDQLQyggJB9IgkloUJxJwWtnu6vPQv9wDlUJBaFQeObMxllzCCHHvBPppy68QFZDocU2Y2HL4ugbBWyOQM7D3MSL5y/Kr9B5gSXkM+qgJTHXLfPuBF7oWo6FMti2jZxuQZE4FKJjdGQM48kUstksdF2HaZquy3EQStDRNQTNcFMA1228AtgZ3hRS8X73GICsztHRk4IaUiHLckVVVfV8AIqqKo6LrVu3voRS2mzbNnKGwHBKCkzJ8KJWQiBjdt0E75UsIv9euD2gYHHpJY6maSOnmUhnDCQzOrI5E401EiKyiWxOg2EYME0Lts18FxNCwDBt7D54ElzIBZZBAmviCrU3ULyPOHtO9GQgSRIIoWpJSUkTgMjpK1c5LlZTU1NNqVRvWyZSWQsZXS4oGyZ3p8KeSz5HChSMk73XhWPbHKZlw7BcEfbaq0Jg1rQQPrYwDMEtmKYrlAXZNIEsq2jrGMD+owOQlNJA1py3jGIXcxMEH6C3h1KK/hENpsVBKSWxaKxh0aJFJW9s354khECORmNTOOcVQghkNA7TFkWAEHCbyZrsAdcKaFEhGMdiLJvBMBlMy4bNXAv1LkIA02tUXLQ6jqqEcKaYhVOHSZIESm1IkgRZlsC4wJaX92E0S6CGJYBM1JeJegMfUeAESJQgnbNgWBySRKEoas2U6imlhJBuAJATiUQ1BKJccIxnAZvRfCj3Q2pQgCdJEt/TshwwpsWgmzZMi7mRKpDdutY3c6qKi1fHMb0KziSjW7VSm0KSbMiyDM4ZVFXB9j3HsXVXF2S1PN8mIU4S7W8HKUwARxDklNUFxlIGKuIUiqomyisqSr00SuacVzDOVQAwdB2cyxCgReXDRNeZ4EpFDTTBBUyLQTNsmJZTdeezbu7WR44OzJ0RxoVnRDG13AsOTopHGAeXvKKWQVVVdPWO4debdkFjUSghJ5/yORDXhYo7K3AzS1JoQQSAIASMmbAsE5SGIElSLBKJJHxAlmXFGGMyAfx8x/nAgCV4rlNgOfAjWxCWEBy2C8YwGRh/r/asoxeLZ0fxqTOiKI8j8ITHxGJYVVWMpw3c88g2dA4whCIl+ZZIAYy8IzlWCB9OETVXqIkPlBAKACoBCXsnypxzhXNOqPs+8Z6AJmaqwXYn3FkE3bChGTaY7UWySYpGV9ea6h3LqUgQcO7UXc78lnN7nZwHiETCyGgM9z/5JvYfyyAUrXDaHt4FTrjsybYBCIIJqhTY4XyWoFxwxQfkgBZ+z1NwDhAywWIKuogTBJrDthmymgXDZIUJZgBgcFaislTG+asSqC510grqeQFx4EiUQpIoYrEohscNPLx5Dw51aAjFKkGp5FtNcaf2/ebShetqXiLrJQWFwk3yOSUAmVJqEkI4RGCGwU/qJi9Eg5FLcA7DdBI82y4U6OIZD7gmT6jAirlxzKkPgyA/9xUsRiVJQiwWQ3v3OJ547iC6hwnCsSo3m0beyiaDE3Ab74jIU/ITbue3ElDhN1ZBKWFccNsHJMtKhhJqc85AqQS4vR9RrC+TXDTjHJpuQTNsPzpNSAHc6jr/gwSqShSsmp9AOKRMbOUCoFSCqqo4cnwQG144grFcFOFYKajrcvAz5zyWyaJT0Gp8b/K3HThCABSSoz/OTzctyzJ8QFzwURCYQgjEYxEQ6AVFakEeFNAixjhymgXdsJ2meeCcCboj4MdgIQQaaiOYURuDIgtIktd094SbQJZlHG0fxOPPHUbaLEE4lnDLifxcGkEelNcOKVSiSawG/tf4NaMAoEgSIpEwhBCwLDOXTCYzHko5nUwOJuKlGSFQVVlCIBELNpMnXmjAOmzOkM1ZMEx7kuwafsXvdPcK1ZASgYapUcSjql+Vi8CtlSQJI+NZPP1aC9JmHOFoiV+gelHH1x8XGopgFX4jABHoDAk/aYcQAOMCiQhBeUIBsw0YhpEaGhpK+4AyuewQoWSEcz4zEQ1DlQk0M1C9F0GyOUNOC8B5j8waEH6u4zWtCABFIqgpD0EqikLeNqUUB1t60TsiEI6X5jUnCCgAxnm/n9TkvUwEQJGAFZGA9RCAc45ETEVIlZExNWhabmBgoN8HRDtPnBjmnHUDQCJGURYXgd5PYQHKOEMuZ8Iw7EADbeJ5BdW/B0c4UilLQDxKA6Kcb2VIkgTGBI51jUNSE5Ak2Sk1CIUUrMeIV5dJoERy9zlrieSPExIY7vuCzX9KKIQQmFoVgqpQMMb5+Pj4qb6+vrQv2r/97YY0s+0WQggUKlBfLYMz5jewvIvmnCGnmTBM2wcYnPue8KQF8omj0+PhoASg1AHlzXCIQLcQAGzGkMkyyEoIlDhwnHkxCZRKkIhUCMYDRjwAkjvykGjBkNx+k3suOBrr4uCcw7YtY3BwoAOA1lhd5VhQa1sH03TtAJVohjEbs+qioIT5cLwpGl23oRuW3/ULWo4n6Pl9+UgXbC24XoWcZsE0LViW80iKbds+MM2wYDEBiUqQKAXx4bgAitcuFOoPB4IHilJ3GxIQBEMoAIKwKtBYXwLTsqHr2ujJk53HABgnhoadKPbqK69ibHT0cGx6otc0reaZtXGUREcwmnbzEwFYlg3NMAN3WrznerKqmroa4j1wsHXvANo7ewBu5ScGJQpZkjCe1jGW5pBDct4d3NDlRDHqRyn4WhQUZuK7tPdLggFOBLJAzhimVSmoqYgim0khmRzvbGtr7QSQz4M2b9kMVVW66uqmH+BcNJeVUMyapmD4qAZKHRHTDMttT3jNekxesAbam55YeuUCpQChjiV1D5jo7jdBwN1eD/F7PoRSKGolJEnxAeXBEF+U/ehVBMiLZMF61RFpkT/mlmic6Vg0OwFVJhizLNbX23uwra1tAADzAf3qV7+CECL17DPPvR4KRS9hlh5a3pzAO60ZME5gum2KYGY96QOW7p0J3iFCHCg+APcJeolSUCnq7iOuqLpC7Yurs9+DQkCLLMYDlcciikD5kEQ+knoHBRcIKzaWzauEYZrI5XKjLa1H9wBIBV2ALlm8CNvf3IGBgf5tkkQ7cpqOeTMTmFYpwbKZqzsMwf4zgi3VoohFgpELzty2B8YD4iV6IYWiNK6grERBaUJFSJHyUS0YgVzNIM6nOToC77Xkfou7Fs4Q7rn5bck55u6zLIbmhhDqa+LQdANDQwPv7tmz+xAAHYFFPnDwMJ56ahPaO44f/+Y1334VhM5TKSOnLyhDW1ePM2f+Pn0g4c1J+bmGKNAdElhTNwuOhCQ0z4hjfkMUVaUKFJmCygrSOYrWrhxaOzMwraDV0IBb0SKL8UqJIvUTmPDasyKnNtexdtlUMGZD1zWttbXljRMnTpwCYAUBSQCw86230NLSau966y2zrLz87zTdKKmvLcWeoyMYSZmB6dxiYfZ+Zr6/A7guRb12KYFEnUEpQTyq4OMrynH2kgRqyyliIYGwwhFRBaaUUyyaU45EPIKuvhwYo672FA+StwZQt8EWhEcC++BaEPx9lmWiuYHjU2fXI5fLoa+3t+Wp3226v7e3t21SQIsWLgSzbRw8eHBkzpymJi6wtCSuEkmSsK91FM4/CSbPrEVAkD3d8YRXogFYEoEsSVhzWhnWLEpAot5jL3nhZIxBcAtzZpRBNwVO9mggVM67jg+AQkx4XWRdolCrvKKVCwJKUvj8J+tQWaogmUqZe3a//eTGTU8+C2AsaHSA9/jLkSP45S9/iTvuvDPV13fqkZCqdKVSGZy9bAoWz447f4AL5j0INMoQzHlEfm7Kj2Ce5jj1zuLZcahyIJsNTAYSQsG5gGVoOH1ROWIh5lyoe/HCBePB8bY597YJOCcQPHDMO84JhJBgGBpWLQxjwexyZHM6Bgb6j7722isvARihlDIULX4j5Lxzz8UN19+ATb/d9Jau556klNrC1nDlJ2ejulQumhsX+XIChdbkJYXecETaIVYWV1BeooJKEiRJgiTRSYbzH7LSuIx4VIAzkbcYMRFKcO1vB18HYJkWw5QKHZesb4BhGMhmM+k9e3Y/vWfvniMANM453hPQPffei1tvuxXPPPNs7siRQ7+WZLonm9Mxpz6KSz8xA4rkPqQd7D8H26i+BcFfUwIQmo9KlFIosgw5MCQfluRO68iQZMlpX3Dm9myou3a3fSgksCbgrgU5oAL7BAFjBJQkcem5tagsDSGb03lH+/Htzzy95fcAhlVVnWA9BYAA4Ibrb8DUqVNx4/e/39Lf13t3OBwaHh0dwwVr6rB+VU2gKM33bxDYnji9SwoSwZzOYdgEqqpAUWQoijJhyLKCcCiEnGYjmTZBiOSHbN+NPFcKrgVx3ciFw/P7OCcw7RTOXR3D6YtqkM7mMDIy1PHCi89v6OruOgZAN71ZyqKl4DHgHTt2IJPJ4JGHHxGPPfboySVLFpeGQuGVlmlIKxfVo6MnhZ6BrNdPyGsNAkAocfrJfuKXTwAtJlCeCGF2fQlkSfIreM+SZFmGqiqIxWJ44+2TONCqQVZLfRHOu5QXqahjt4I6Dfng8PvPFIaZxuolHFdd1ATTNJBMJcdffun3Dzzy6MPPAhhAoLR4X0BOiKb47VO/RduxY8Z99957fNasxlkCpFmhnCyeNxVtJ0cxOKpNmOP2Ho+j1Avr1AfjrQGK4XETZXEZU6fEEVIVF44DJhRSEQqFceBoP7a8dAKMVoNKIddSitxM0MndT6AAlGFmsbjZwP/4XBNkSSCTzRq7dr311F133fmQYRgnVFXVGWP4wIC8tsNNN92EnW/tHGtubm5vaJixwDTthkRUwpL5U9FxatyBFIhWwUd1pcAosCKJwrCAzp4sMlkdIcWZVgYhME2OgeEsXt95As++2oWcXQUlFH8PEI7b5C2LgPvH84AMK40lcw1cc3kT4hEJuZzGDh8++NIdd/zXvf39/e9SStO2/Z7G48jG+x288JOfxPMvvCDfduvt65csXfZz22JLo9EI0oaCezcdws6DA3Ce9HKtRnKgyLJTmctuVJIl6rcvnPYDBQVHRLFREiUIKYBhMIynbeR0FZJaDkmOBiIWCbhYkSv5EuhN4TgFNhPjWLuM4epPz0E8TJHVdNbS8u72X/3qzv/19tu7dlBKRzjnDH9ked8/1B07fhx7d+/ll/7Dpd1Llyw5OW3atAWmZddGVIE1y2bAsCx09qTAGAosx7MaSaJFT2bQfPdPksFECFldQSqnIGtGIWgpZLUUVFKBgpyHFFhRXpABeK/dbcu2ISvDuHidgqs/3YywSqDpBmttObr9vvvuvWvnzh07AQwLIf4onD8KCADu+9/3QQjB16xZ0zlvbvPxumnTZgpBpgtmkDVLZ6C6Ioqu/iQyOdut0oMalF/nO37UDf1ut4/KkCQVVFJAiFQEhk6iOR6coKs5kEwrg2lTRvG1S6fgovWNEIIjm9OMgwf2v3z3PXfdvXPnzp0AhvA+ovyhAQGOHj30m9/wb1977cnKqqpDM2fOqIzGYo25bFaZ11iOlQunQjctDI5qsJlwHleRaB6S1/70dCrQGw72eoKlQ7B88KJWgc5wAu6BsU2ElGF8/AyOb3+xGUvn18IwLSRTqfHtb77xu1tv+8W9R44c2Qtg+MPA+cCAAOB3mzfj7LVr+IaNG/s1XXtnVuNMe2ptzWxdN+MRRWDNsno01pUgldGRzJgQPK9JDhRSYEFeXxguJKeUKC443fCNQgsCHC0yLQOUjmJxcw7fuKIOV1y0AFUVCeiGyXt6ejo2b/7db267/daHBwYGjlBKxz6oWwUX8mHf4C60sbGx4vrrrrtwxfIV31CU0MpMNqeqqgImFOxvG8HOA3043p2BbhHIkgxFll1Nys9CEG9G0+3XCCG5+czkpQRjBJbNYNs6IuEMFs4hOO/MaThzVQMqyhOwTIaR0ZHM3r17dzz26KNPbt6yeTuAHkJIVnh/PvsLAfKW8JevvnrBxRddfEVDw8zPCEFmabpOVUUBqIzugSz2Hh1Gy4kURpImLJuCUAWyJPszE35DPaA9fm3FCGwG98FNE6pioLZKYNm8GM5aNQ1LFtSjvLwUjAukUimztbW19fnnn3/2oYceeqmrq6sNwIgkSSZjTPypF/j/BOgLV34Bjzz2CFUUpeyfvn3tirPPOuuz0+rqzgORZhiGKVNCoCgKNAsYGMmisyeNzr4chsYM5DQO3aRgTLgNyXzF7lgWEAlxxCIUU6tkNDXEMX9OFZpmTcHUmgqooTAAgWQypXd0dLS//vrrWzds2PDKrl27DgMYBJBDoLf8VwFUtMjhcLj8a1/96rLVH1t93owZM9ZFItEmxlHCGCPes4YgTlWtGwxjaQOmYeY7BG65IlEJ0UgEFWUhxKMhlJbEEI/HEIlEoKgKOOdsbGxs7NixYy3b33xz+9PPPLNj165dLS6YDKXUnqwy/2sD8kEBKL3g/PMb165Zs6K5ee7qquopiyOR6HRJkkqEgPNwkttY8wXbW/uzG8Rv3kuSxCklhmFo40NDw13HjrUd3rlz5ztbt2493NnZ2QWn0ZUjhFiT/UvobwqQ089hgBMhQ5FIpOyMM86oX7Rw0ZyZM2fOra6unlVWVj49Go1WRaLRhESlMAAFBNSdf2cALNMytUwmm0qnU0NDg4O93ae6O1pbWtoPHjp0sr29vQ/AOIAsAAOEMHzEYP5sgIJLfX09Tp065cVuBUAYQLyxsbG0vr6+rKampiwaicSpJIUAKM40NrNN0zLGx8ezPT09qb6+3tTIyGjKhaEBMABYhBAuPmpz+UsDep/vzGeDjqV5r73Fa1Uyd5sDEJRS8VFpy/9fPqLl/wJBJ4RAxftIRgAAACV0RVh0ZGF0ZTpjcmVhdGUAMjAxOS0wMS0wOFQyMzo0NzozMSswODowMJMO5jgAAAAldEVYdGRhdGU6bW9kaWZ5ADIwMTktMDEtMDhUMjM6NDc6MzErMDg6MDDiU16EAAAAQ3RFWHRzb2Z0d2FyZQAvdXNyL2xvY2FsL2ltYWdlbWFnaWNrL3NoYXJlL2RvYy9JbWFnZU1hZ2ljay03Ly9pbmRleC5odG1svbV5CgAAABh0RVh0VGh1bWI6OkRvY3VtZW50OjpQYWdlcwAxp/+7LwAAABh0RVh0VGh1bWI6OkltYWdlOjpIZWlnaHQAMTI4Q3xBgAAAABd0RVh0VGh1bWI6OkltYWdlOjpXaWR0aAAxMjjQjRHdAAAAGXRFWHRUaHVtYjo6TWltZXR5cGUAaW1hZ2UvcG5nP7JWTgAAABd0RVh0VGh1bWI6Ok1UaW1lADE1NDY5NjI0NTHTJ3iKAAAAEnRFWHRUaHVtYjo6U2l6ZQAxOTg0MkIxuFL5AAAAXnRFWHRUaHVtYjo6VVJJAGZpbGU6Ly8vaG9tZS93d3dyb290L25ld3NpdGUvd3d3LmVhc3lpY29uLm5ldC9jZG4taW1nLmVhc3lpY29uLmNuL2ZpbGVzLzIvMjgwOTAucG5nBZcoZgAAAABJRU5ErkJggg==;" parent="1" vertex="1">
          <mxGeometry x="415" y="145" width="26" height="26" as="geometry"/>
        </mxCell>
        <mxCell id="RJKqDijKu-WlhtUEkn75-7" value="操作按钮" style="rounded=1;whiteSpace=wrap;html=1;labelBackgroundColor=none;fillColor=#dae8fc;strokeColor=#6c8ebf;" parent="1" vertex="1">
          <mxGeometry x="347" y="148" width="63" height="20" as="geometry"/>
        </mxCell>
        <mxCell id="RJKqDijKu-WlhtUEkn75-8" value="" style="endArrow=none;html=1;fontColor=#000000;" parent="1" edge="1">
          <mxGeometry width="50" height="50" relative="1" as="geometry">
            <mxPoint x="443" y="175" as="sourcePoint"/>
            <mxPoint x="442.5" y="135" as="targetPoint"/>
          </mxGeometry>
        </mxCell>
        <mxCell id="RJKqDijKu-WlhtUEkn75-17" style="rounded=0;orthogonalLoop=1;jettySize=auto;html=1;entryX=0.5;entryY=0;entryDx=0;entryDy=0;fontColor=#000000;" parent="1" target="RJKqDijKu-WlhtUEkn75-12" edge="1">
          <mxGeometry relative="1" as="geometry">
            <mxPoint x="180" y="220" as="sourcePoint"/>
          </mxGeometry>
        </mxCell>
        <mxCell id="RJKqDijKu-WlhtUEkn75-18" style="edgeStyle=none;rounded=0;orthogonalLoop=1;jettySize=auto;html=1;entryX=0.5;entryY=0;entryDx=0;entryDy=0;fontColor=#000000;" parent="1" target="RJKqDijKu-WlhtUEkn75-13" edge="1">
          <mxGeometry relative="1" as="geometry">
            <mxPoint x="240" y="220" as="sourcePoint"/>
          </mxGeometry>
        </mxCell>
        <mxCell id="RJKqDijKu-WlhtUEkn75-19" style="edgeStyle=none;rounded=0;orthogonalLoop=1;jettySize=auto;html=1;entryX=0.5;entryY=0;entryDx=0;entryDy=0;fontColor=#000000;" parent="1" target="RJKqDijKu-WlhtUEkn75-14" edge="1">
          <mxGeometry relative="1" as="geometry">
            <mxPoint x="300" y="220" as="sourcePoint"/>
          </mxGeometry>
        </mxCell>
        <mxCell id="RJKqDijKu-WlhtUEkn75-10" value="内管工作知识图谱" style="shape=image;verticalLabelPosition=bottom;labelBackgroundColor=none;verticalAlign=top;aspect=fixed;imageAspect=0;image=data:image/png,iVBORw0KGgoAAAANSUhEUgAAAIAAAACACAQAAABpN6lAAAAABGdBTUEAALGPC/xhBQAAACBjSFJNAAB6JgAAgIQAAPoAAACA6AAAdTAAAOpgAAA6mAAAF3CculE8AAAAAmJLR0QAAKqNIzIAAAAJcEhZcwAAJxAAACcQAZRpURkAAAAHdElNRQfjARQVMiPr5W5sAAAPD0lEQVR42u2de3BV1bnAfzkQ8jgniBCVYHCm9yqaAoLQWhKg2hJbrImIvfdOb/9osb5gChW444y1M50rtxDHtHJbxNvKwz50WqwIQuIDsNYYNEVG0gAXIfiAJLxJKDHkZc7pH2dn8e29z9l7nZO9Twjy7X/22ev9rbW+9a3vdeASXIJLcAk+x5DWjy3nMpKhwFmOc5LI5wkBWXyNOylkFJlAB8d4h838hXP9g4RUQx6/4hwRy3OOlYzq766lAop40zb43qeKaf3dPb9hCgfjDj9ChI8o6u8u+glBNjgOP0KElwmlskuDUoqAb/Mwg9WvFt6ikh20MIIs9fULfMDulPYqZZBJpZjp3RSTAUAGxdSJlFcEOi4q+DLH1CBbKDWlldKi0o5zc3931R94RMxyGQFTWoAykfpI6joV6HsV2nCNemtlM2FTWpjNtMbIeVEhYIh666LNltpGV4ycFxUCzs9wkDxb6iiC6v3sxYmA/WrZZ3K/5bQPcR+ZxnuYD1LYqyQhh2uZwnQmk28cZu5QwCeKzHXwgCntATpU2sdcr1njEPKZzHSmcB1DUzX0ABNYSjUNnKWNFuqpYF6MJR2r5CpB6ZtZwjhGMIJxLKFZpPxGa12OZC6bOEALbZylkXdYxkT/V/Qwymmysa9h3uNujav1NNNAIxynllqOm76d1rgNpDGbHYRt/ThCOcP8HH4ua2M029vxea6MdTorXe8CK0h3qSXAXE7FKR1mLbl+DX8Yax273so9rnWM5CV64tbQw3qucq1jDmcd+7HWn1UQoDzu7Pc+jdzqWs/llNMds3Q3T3C5a/lbaXTpRZhyP2jBBNPe72IHT1HG8xw2Nb6JbNeagiygVlD96KlQywKNstlsMpX7hOcoYyU7TUhtYoL3CFgmGmjgfmOnBRjPs3SJbfA1rdquZBbLqWQ726lkObM0lj7A12lVbXWymrHGXF/BXNMELfV6+EPZLpbq/aa0IBtF0/+dQK1DCBFKiPF9TLT0Z8uKmcdnKm07Od4i4DoaVOXv2ehsqRBy/lmIPLyGwbyo2mnjdkvqVbwv1ui1elXqEosRXKbed3DKkrqLJvWep1ha7yFTMFwN1FpSj7NTvV+mexjqzla6OOPtV5UO2mPmdIOrmUGENziimX+Q6O85Om3prSKnGzeRIALO0aV23GgCltv8CEaInN2adRbxFOOJsJf5bNcq0S1UJ7lcTrMFPaPVe6fXSpZ8Dqj9dYhxltTFgkNYo6ltSucFVWad5nylCVash/mW1JvEOXCAfG8RMITNgv7+1nSZ/ZJJ1v9DzRpzqFFlarRp9g9FS/u5yVTfcyZ+xHOhyjwxy11spJR8crmexabhNzFWs75BrFGlVmvTjXGm034/CxlDLvnMYrPgRsLM9Xr4MJIdJh7sHPXU0WRij3tswk4n+CIVnOIUFRRolwnwuKXFRuo4SLupbzsY6T0CYHbcO1jvs0UQQx0IMZGJCWqCctnq0ovT3O3H8CGNuY73sD18yZ+GLTCZPQ69aGWuf0r/AHMER2i+yG5hckqGH0XB63Eu1Y3M8VvddwsbbeuggaVq8YeYyQ8o1OIwAlzFVVpUYzCF/ICZaruMoMx2LW7lZW5JdDjJLJYsbuarjGUU6bTxEe9TxT4ixvB/wffJoJklrLCwS1bI4xFuA7ZRxlEXRC3gpwynk9/xX3xqfLuBW5jMFwjSzRH+nyr+lkobk0EEybHx/TPVPf+Ei2wvjXI1d+UubRVxwsjZzkxLLVkMJZj8sk/+5tYTQ7sDo5SQPFcwprEgSKF6LyQYs7ZeuEZdbTIt8ucI7eIekgR4LTrap/jz/dQ55uzmjHo/w2eOef/OfuOtmX0e99hjGMyPOEGYfZalGgvuMlTiZ5jtmveb7CPMCR7yWtrg/YkZYAqjqVMzlQExLq5RZJVSSoRKNsVZAbJsATfSQI0LYb0AECAhxH3MBF7kj3H2eBoQ20QyyHf4d+B1Vhl0fwDCIoNd6ebRhMs+ash5e1jY38NIFjJ4TR10VQly/CHeVmVf01a/JgH+CTCdYBCjKGAc+eQArTSyh30coUfkicR4G3Bwr7GMO03Sm6ms5aDFWPYcB3mWqSLXfDqN7XNvfw8jeQjyKFVUMV/IE5c6qLaaWKbYp2zmU0UVjwrLkQEJIbH7pwsxWLynhukxy/oE8Y/BLMZSzDUMoZX9vCUMXJKF/6Bcy/6rgYdZ18e2AlzHLRSQQxeH+Qt1dCRSPMR3eUWYNYb5hGeYqitrjwnTOWSb7XaaabaIs6Jy5+l9aCmdaaziYyExOE4l/6m/lQrZZBAg89PMU0nL2kZbFn8b21jIDCYxiRksYittlo0wOsmW8nhaWJ2efzrYyBSdCqbykcMOfUlDgx8LlplqqeUOiyA8xB3sMuVJTr87gpcdev+hu/nNKN5yJFE9lCdBlaeahNk74wjPJrHTdCJMTbAVCLHcxYjjr87mXNk8ZSlwllOWPdpt08i4wSCTac0uB9nhZNMqWJuwmGORUJBHacwpm/huhZMteomJPWmhjCImMJP1JnuOWq5MqFvXCNVJG3c45i0RtOBggnQgzyQt7uBFZjKBIspMNOFc/B6k8RuRsY5SJS4J8YAwcOtgliiVTo5lptIImrj3bwi0bnU52XPYJrr6DZGSYdt6g8gxnUv/JnRDzTyg8gcoNfkj/Dre4X+lyNZMsSV1iahiufpaxDpqWC10O3mUU00ls9U9Y7EoudB1HheJ3IuMb4OZTSXVlAu/si+yhhpeEJRCbt/HLLUWiwms44rYTY/npMr0qu0GNk4YNFYaqsdRyiajwpjZAL9UG6hXP7Nc7MkZrggoFjTnSePb3ZwxvvzSWJUhKhRNiSIlky2q3DGb/jqTV1XqCcafT5AywaFCxnvAJsU5KkTXwwwEzFANTTFMUq7gNpWnxFhq5xd9Oy2uCGgWQs7oUZlGibJPuc2YvWuVSHWsgdQMYcNy1CZm7+CAes+SR7CftrV+XGP16kxAziURcFbwy2NsWyBPnKBnDOeGN9hjfHmXegBOslXlqTS6e95wJUuDjRoujqlWY9AVSoK8jZMAHORd48se3gCgk3+ociNtp30mY9R7u+iRCa5wJIL/o00En6CaCu6KSQQX4QaxieBdVFBNuRhYlAiui0MEl1hq1SKCafxaVLHbdAw+aDoG7xKl7McgDsfgNhdbEC+PwZDKp3kMwh0xGaHbecnCCOlZdfbCaBMjVOKYVzJC9X1khNZzOxMo4nELI/St+FVksUKDFf5RQt2yssK1jqxwrci5xhdW+FfObpkjHXy7I0QI83PfLkOTTZehRl8uQ2+6+7YUOvp3b2B4wt0CWGqqpZYSCy3IocSj6/BGh95rXIcBvsIGizF7L2FZ6alAZBHFTGISxSxim00gkqydXx4rLY45vTRBUyACUbVUBUfFwj/EKqb1SSQ2LSGRWF8CKcQWiX0n9taNzzNlGkLRDFrZTxUfpEwoepiHeaGPbZ0XinZymDcTFYp6CVK0PY13HUlUdPFPi1l2QEI2P+ZtqlmoBpLPzxwUI40sFYqRBbxNNT8ZyEiYY/Bm3SwWX4tYE1M1ttZ08C1QqrH7/Oyin/YBQ9iguK4avin8DKLK0bGMNpSjDey1KEdDvKq2whZm+beD+0c73EMDDWxxzCOnxkf9sJ/ygC5eM+a0h9cTdIn/lFcNs5kwr8UxsfEE/DUr3ctJAnzMz3lGhEeQkBZ3E+7iEJl8yP+xKk5ZTyAVRlJpcXbwYO6kBKiIaySVScRvIymvYTAPaZvJzU7ATG6mX2ZyXkMhp42DbZ+LG0SGiCpU4WIFVMA+I+dpYV/qCXhNBAvUbfF6bnTMmS6kuMNc5nWCiikxnBsuFATENpY+ovb7KRocy3+qxJrwrqOlMBxWrpodNoF3JjmpNpbONszl8wxz+V28pa5K1fye75FJM0upcannSYYY5vJPuuSsYSk/ZTgd/J5q41saBXyVSfwLQbo5yl7eTo25/K28bBMzNbLM5DBxD1N8cJi4x+QwYTe2OssmjfgFfYIAc+JcZXrYkiKPIXB2mbnHP95moDhNzfPrhnO3OuLiPVsTDGAyoNzm8iyOk+3UU0ejaSmGeTyBc6XAA8fJME3UUW+5XPviOGl2nd3EneSTyxgeYr9ousmmmI4HXrjO1rOYMeRyNaVsNLnOzvN6+Gbn6edMQu2b+ECk+es8Pd80fElzgjwr0jx3ns6nXlDaiZbUBWIj6LvPr1NlknGfD5ukTADjhNzZc/f5yUK/ts62YP9VBNN5UyMYThSKeJ8uunhfO5RuttBbNQmFdxQCPK9Sm3X9WHU5wWyxpBpMdv0ALZwWwkxd7cE7lDADEgihkS6Qe9oSPwLCgvnO0J0GXQR0i0Hb92uGUDh229ATH47wB+28AD1CbpAV4waZI3JqBvLQPbROC/uLL9vU4xOFIvuojyoIeRW6mkmW1FwRjfYftkg3fUTAcQ6r9xstjEY294oFt9fFCVJCooGUPmOves/iXgsLNVsQ50Mc165VE6S5cxNzDTOTAGNZLWzLkwml9Qr/y+wkQml18VvGG1OYy/0mx37PQ2lZg6l1s5OnKeM5i8pTL5jafHZZ9M+d/J2HNCwPrMHUDvM8j7OS9/wPpuZdOL0n4oTT+4xfaFgf9Fs4PRgmmNfY97A5rnWMZL1DQMUwGzWik/ZTQEWAXNb0MaTmCiIuz9MXbkhNgMt4og9BVYssthvH2EWt8E2K8nDuxhH9FlQ1in8ZVreZejYxT+v6GeAZ00AfU2F1HzMhZlUSYXUb2M4yJqQuULQMrKx7jt/Ax2qQToGVP9GWDwzhaiOw8rWpC6ycPDwoyN+LliMvxHqV1sODqetUKmOL36Ba62C1RRPwKasVCx3wWvlxoSDg/FWlLUbYnCMCJR7HA71QECD/P8DO8wUFLfHRHqA/EXD+tp4jLNGjMIg7xbwf1q5zQMHNwuvI6U9WjqVQxZJSyOIVcdrvpthQrWZSzG6RUuljXFobpPbf5r7Ls2Knt/A3DgBj+IpwpelkDn9Kaa9SCEFH1+bos2GgR4xwhkI+dBz+QX2L7oEKUx380/96cf/XXC/ksSLmHy6u0PqnEo+hv/5y8+uUqr/cbFd/udmnwHgDCQHRli+IP129BJfgElyCzzX8E7VWdfLcNpp4AAAAJXRFWHRkYXRlOmNyZWF0ZQAyMDE5LTAxLTIwVDIxOjUwOjM1KzA4OjAwg2C8UQAAACV0RVh0ZGF0ZTptb2RpZnkAMjAxOS0wMS0yMFQyMTo1MDozNSswODowMPI9BO0AAABDdEVYdHNvZnR3YXJlAC91c3IvbG9jYWwvaW1hZ2VtYWdpY2svc2hhcmUvZG9jL0ltYWdlTWFnaWNrLTcvL2luZGV4Lmh0bWy9tXkKAAAAGHRFWHRUaHVtYjo6RG9jdW1lbnQ6OlBhZ2VzADGn/7svAAAAGHRFWHRUaHVtYjo6SW1hZ2U6OkhlaWdodAA1OTZAOR2QAAAAF3RFWHRUaHVtYjo6SW1hZ2U6OldpZHRoADU5NtPITc0AAAAZdEVYdFRodW1iOjpNaW1ldHlwZQBpbWFnZS9wbmc/slZOAAAAF3RFWHRUaHVtYjo6TVRpbWUAMTU0Nzk5MjIzNaK6+8IAAAASdEVYdFRodW1iOjpTaXplADIwMjMwQuL41kUAAABidEVYdFRodW1iOjpVUkkAZmlsZTovLy9ob21lL3d3d3Jvb3QvbmV3c2l0ZS93d3cuZWFzeWljb24ubmV0L2Nkbi1pbWcuZWFzeWljb24uY24vZmlsZXMvMTIyLzEyMjkyNTUucG5nVdScNwAAAABJRU5ErkJggg==;" parent="1" vertex="1">
          <mxGeometry x="192.5" y="125" width="75" height="75" as="geometry"/>
        </mxCell>
        <mxCell id="RJKqDijKu-WlhtUEkn75-12" value="对应操作/&lt;br&gt;关键词释意" style="rounded=0;whiteSpace=wrap;html=1;labelBackgroundColor=none;fillColor=#d5e8d4;strokeColor=#82b366;" parent="1" vertex="1">
          <mxGeometry x="100" y="245" width="90" height="50" as="geometry"/>
        </mxCell>
        <mxCell id="RJKqDijKu-WlhtUEkn75-13" value="所需的数据页面的链接（如果需要）" style="rounded=0;whiteSpace=wrap;html=1;labelBackgroundColor=none;fillColor=#d5e8d4;strokeColor=#82b366;" parent="1" vertex="1">
          <mxGeometry x="200" y="245" width="90" height="50" as="geometry"/>
        </mxCell>
        <mxCell id="RJKqDijKu-WlhtUEkn75-14" value="关联业务与概念" style="rounded=0;whiteSpace=wrap;html=1;labelBackgroundColor=none;fillColor=#d5e8d4;strokeColor=#82b366;" parent="1" vertex="1">
          <mxGeometry x="302" y="245" width="90" height="50" as="geometry"/>
        </mxCell>
        <mxCell id="RJKqDijKu-WlhtUEkn75-15" value="" style="shape=flexArrow;endArrow=classic;html=1;width=14.285714285714286;endSize=10.668571428571429;entryX=1;entryY=0.5;entryDx=0;entryDy=0;" parent="1" target="RJKqDijKu-WlhtUEkn75-10" edge="1">
          <mxGeometry width="50" height="50" relative="1" as="geometry">
            <mxPoint x="330" y="163" as="sourcePoint"/>
            <mxPoint x="410" y="105" as="targetPoint"/>
          </mxGeometry>
        </mxCell>
        <mxCell id="RJKqDijKu-WlhtUEkn75-22" value="内管员工" style="shape=image;html=1;verticalAlign=top;verticalLabelPosition=bottom;labelBackgroundColor=none;imageAspect=0;aspect=fixed;image=https://cdn0.iconfinder.com/data/icons/ikooni-outline-free-basic/128/free-17-128.png;strokeColor=#000000;" parent="1" vertex="1">
          <mxGeometry x="127.5" y="320" width="70" height="70" as="geometry"/>
        </mxCell>
        <mxCell id="RJKqDijKu-WlhtUEkn75-23" value="信息管理员" style="shape=image;html=1;verticalAlign=top;verticalLabelPosition=bottom;labelBackgroundColor=none;imageAspect=0;aspect=fixed;image=https://cdn0.iconfinder.com/data/icons/ikooni-outline-free-basic/128/free-17-128.png;strokeColor=#000000;" parent="1" vertex="1">
          <mxGeometry x="127.5" y="440" width="70" height="70" as="geometry"/>
        </mxCell>
        <mxCell id="RJKqDijKu-WlhtUEkn75-25" value="内管工作知识图谱" style="shape=image;verticalLabelPosition=bottom;labelBackgroundColor=none;verticalAlign=top;aspect=fixed;imageAspect=0;image=data:image/png,iVBORw0KGgoAAAANSUhEUgAAAIAAAACACAQAAABpN6lAAAAABGdBTUEAALGPC/xhBQAAACBjSFJNAAB6JgAAgIQAAPoAAACA6AAAdTAAAOpgAAA6mAAAF3CculE8AAAAAmJLR0QAAKqNIzIAAAAJcEhZcwAAJxAAACcQAZRpURkAAAAHdElNRQfjARQVMiPr5W5sAAAPD0lEQVR42u2de3BV1bnAfzkQ8jgniBCVYHCm9yqaAoLQWhKg2hJbrImIvfdOb/9osb5gChW444y1M50rtxDHtHJbxNvKwz50WqwIQuIDsNYYNEVG0gAXIfiAJLxJKDHkZc7pH2dn8e29z9l7nZO9Twjy7X/22ev9rbW+9a3vdeASXIJLcAk+x5DWjy3nMpKhwFmOc5LI5wkBWXyNOylkFJlAB8d4h838hXP9g4RUQx6/4hwRy3OOlYzq766lAop40zb43qeKaf3dPb9hCgfjDj9ChI8o6u8u+glBNjgOP0KElwmlskuDUoqAb/Mwg9WvFt6ikh20MIIs9fULfMDulPYqZZBJpZjp3RSTAUAGxdSJlFcEOi4q+DLH1CBbKDWlldKi0o5zc3931R94RMxyGQFTWoAykfpI6joV6HsV2nCNemtlM2FTWpjNtMbIeVEhYIh666LNltpGV4ycFxUCzs9wkDxb6iiC6v3sxYmA/WrZZ3K/5bQPcR+ZxnuYD1LYqyQhh2uZwnQmk28cZu5QwCeKzHXwgCntATpU2sdcr1njEPKZzHSmcB1DUzX0ABNYSjUNnKWNFuqpYF6MJR2r5CpB6ZtZwjhGMIJxLKFZpPxGa12OZC6bOEALbZylkXdYxkT/V/Qwymmysa9h3uNujav1NNNAIxynllqOm76d1rgNpDGbHYRt/ThCOcP8HH4ua2M029vxea6MdTorXe8CK0h3qSXAXE7FKR1mLbl+DX8Yax273so9rnWM5CV64tbQw3qucq1jDmcd+7HWn1UQoDzu7Pc+jdzqWs/llNMds3Q3T3C5a/lbaXTpRZhyP2jBBNPe72IHT1HG8xw2Nb6JbNeagiygVlD96KlQywKNstlsMpX7hOcoYyU7TUhtYoL3CFgmGmjgfmOnBRjPs3SJbfA1rdquZBbLqWQ726lkObM0lj7A12lVbXWymrHGXF/BXNMELfV6+EPZLpbq/aa0IBtF0/+dQK1DCBFKiPF9TLT0Z8uKmcdnKm07Od4i4DoaVOXv2ehsqRBy/lmIPLyGwbyo2mnjdkvqVbwv1ui1elXqEosRXKbed3DKkrqLJvWep1ha7yFTMFwN1FpSj7NTvV+mexjqzla6OOPtV5UO2mPmdIOrmUGENziimX+Q6O85Om3prSKnGzeRIALO0aV23GgCltv8CEaInN2adRbxFOOJsJf5bNcq0S1UJ7lcTrMFPaPVe6fXSpZ8Dqj9dYhxltTFgkNYo6ltSucFVWad5nylCVash/mW1JvEOXCAfG8RMITNgv7+1nSZ/ZJJ1v9DzRpzqFFlarRp9g9FS/u5yVTfcyZ+xHOhyjwxy11spJR8crmexabhNzFWs75BrFGlVmvTjXGm034/CxlDLvnMYrPgRsLM9Xr4MJIdJh7sHPXU0WRij3tswk4n+CIVnOIUFRRolwnwuKXFRuo4SLupbzsY6T0CYHbcO1jvs0UQQx0IMZGJCWqCctnq0ovT3O3H8CGNuY73sD18yZ+GLTCZPQ69aGWuf0r/AHMER2i+yG5hckqGH0XB63Eu1Y3M8VvddwsbbeuggaVq8YeYyQ8o1OIwAlzFVVpUYzCF/ICZaruMoMx2LW7lZW5JdDjJLJYsbuarjGUU6bTxEe9TxT4ixvB/wffJoJklrLCwS1bI4xFuA7ZRxlEXRC3gpwynk9/xX3xqfLuBW5jMFwjSzRH+nyr+lkobk0EEybHx/TPVPf+Ei2wvjXI1d+UubRVxwsjZzkxLLVkMJZj8sk/+5tYTQ7sDo5SQPFcwprEgSKF6LyQYs7ZeuEZdbTIt8ucI7eIekgR4LTrap/jz/dQ55uzmjHo/w2eOef/OfuOtmX0e99hjGMyPOEGYfZalGgvuMlTiZ5jtmveb7CPMCR7yWtrg/YkZYAqjqVMzlQExLq5RZJVSSoRKNsVZAbJsATfSQI0LYb0AECAhxH3MBF7kj3H2eBoQ20QyyHf4d+B1Vhl0fwDCIoNd6ebRhMs+ash5e1jY38NIFjJ4TR10VQly/CHeVmVf01a/JgH+CTCdYBCjKGAc+eQArTSyh30coUfkicR4G3Bwr7GMO03Sm6ms5aDFWPYcB3mWqSLXfDqN7XNvfw8jeQjyKFVUMV/IE5c6qLaaWKbYp2zmU0UVjwrLkQEJIbH7pwsxWLynhukxy/oE8Y/BLMZSzDUMoZX9vCUMXJKF/6Bcy/6rgYdZ18e2AlzHLRSQQxeH+Qt1dCRSPMR3eUWYNYb5hGeYqitrjwnTOWSb7XaaabaIs6Jy5+l9aCmdaaziYyExOE4l/6m/lQrZZBAg89PMU0nL2kZbFn8b21jIDCYxiRksYittlo0wOsmW8nhaWJ2efzrYyBSdCqbykcMOfUlDgx8LlplqqeUOiyA8xB3sMuVJTr87gpcdev+hu/nNKN5yJFE9lCdBlaeahNk74wjPJrHTdCJMTbAVCLHcxYjjr87mXNk8ZSlwllOWPdpt08i4wSCTac0uB9nhZNMqWJuwmGORUJBHacwpm/huhZMteomJPWmhjCImMJP1JnuOWq5MqFvXCNVJG3c45i0RtOBggnQgzyQt7uBFZjKBIspMNOFc/B6k8RuRsY5SJS4J8YAwcOtgliiVTo5lptIImrj3bwi0bnU52XPYJrr6DZGSYdt6g8gxnUv/JnRDzTyg8gcoNfkj/Dre4X+lyNZMsSV1iahiufpaxDpqWC10O3mUU00ls9U9Y7EoudB1HheJ3IuMb4OZTSXVlAu/si+yhhpeEJRCbt/HLLUWiwms44rYTY/npMr0qu0GNk4YNFYaqsdRyiajwpjZAL9UG6hXP7Nc7MkZrggoFjTnSePb3ZwxvvzSWJUhKhRNiSIlky2q3DGb/jqTV1XqCcafT5AywaFCxnvAJsU5KkTXwwwEzFANTTFMUq7gNpWnxFhq5xd9Oy2uCGgWQs7oUZlGibJPuc2YvWuVSHWsgdQMYcNy1CZm7+CAes+SR7CftrV+XGP16kxAziURcFbwy2NsWyBPnKBnDOeGN9hjfHmXegBOslXlqTS6e95wJUuDjRoujqlWY9AVSoK8jZMAHORd48se3gCgk3+ociNtp30mY9R7u+iRCa5wJIL/o00En6CaCu6KSQQX4QaxieBdVFBNuRhYlAiui0MEl1hq1SKCafxaVLHbdAw+aDoG7xKl7McgDsfgNhdbEC+PwZDKp3kMwh0xGaHbecnCCOlZdfbCaBMjVOKYVzJC9X1khNZzOxMo4nELI/St+FVksUKDFf5RQt2yssK1jqxwrci5xhdW+FfObpkjHXy7I0QI83PfLkOTTZehRl8uQ2+6+7YUOvp3b2B4wt0CWGqqpZYSCy3IocSj6/BGh95rXIcBvsIGizF7L2FZ6alAZBHFTGISxSxim00gkqydXx4rLY45vTRBUyACUbVUBUfFwj/EKqb1SSQ2LSGRWF8CKcQWiX0n9taNzzNlGkLRDFrZTxUfpEwoepiHeaGPbZ0XinZymDcTFYp6CVK0PY13HUlUdPFPi1l2QEI2P+ZtqlmoBpLPzxwUI40sFYqRBbxNNT8ZyEiYY/Bm3SwWX4tYE1M1ttZ08C1QqrH7/Oyin/YBQ9iguK4avin8DKLK0bGMNpSjDey1KEdDvKq2whZm+beD+0c73EMDDWxxzCOnxkf9sJ/ygC5eM+a0h9cTdIn/lFcNs5kwr8UxsfEE/DUr3ctJAnzMz3lGhEeQkBZ3E+7iEJl8yP+xKk5ZTyAVRlJpcXbwYO6kBKiIaySVScRvIymvYTAPaZvJzU7ATG6mX2ZyXkMhp42DbZ+LG0SGiCpU4WIFVMA+I+dpYV/qCXhNBAvUbfF6bnTMmS6kuMNc5nWCiikxnBsuFATENpY+ovb7KRocy3+qxJrwrqOlMBxWrpodNoF3JjmpNpbONszl8wxz+V28pa5K1fye75FJM0upcannSYYY5vJPuuSsYSk/ZTgd/J5q41saBXyVSfwLQbo5yl7eTo25/K28bBMzNbLM5DBxD1N8cJi4x+QwYTe2OssmjfgFfYIAc+JcZXrYkiKPIXB2mbnHP95moDhNzfPrhnO3OuLiPVsTDGAyoNzm8iyOk+3UU0ejaSmGeTyBc6XAA8fJME3UUW+5XPviOGl2nd3EneSTyxgeYr9ousmmmI4HXrjO1rOYMeRyNaVsNLnOzvN6+Gbn6edMQu2b+ECk+es8Pd80fElzgjwr0jx3ns6nXlDaiZbUBWIj6LvPr1NlknGfD5ukTADjhNzZc/f5yUK/ts62YP9VBNN5UyMYThSKeJ8uunhfO5RuttBbNQmFdxQCPK9Sm3X9WHU5wWyxpBpMdv0ALZwWwkxd7cE7lDADEgihkS6Qe9oSPwLCgvnO0J0GXQR0i0Hb92uGUDh229ATH47wB+28AD1CbpAV4waZI3JqBvLQPbROC/uLL9vU4xOFIvuojyoIeRW6mkmW1FwRjfYftkg3fUTAcQ6r9xstjEY294oFt9fFCVJCooGUPmOves/iXgsLNVsQ50Mc165VE6S5cxNzDTOTAGNZLWzLkwml9Qr/y+wkQml18VvGG1OYy/0mx37PQ2lZg6l1s5OnKeM5i8pTL5jafHZZ9M+d/J2HNCwPrMHUDvM8j7OS9/wPpuZdOL0n4oTT+4xfaFgf9Fs4PRgmmNfY97A5rnWMZL1DQMUwGzWik/ZTQEWAXNb0MaTmCiIuz9MXbkhNgMt4og9BVYssthvH2EWt8E2K8nDuxhH9FlQ1in8ZVreZejYxT+v6GeAZ00AfU2F1HzMhZlUSYXUb2M4yJqQuULQMrKx7jt/Ax2qQToGVP9GWDwzhaiOw8rWpC6ycPDwoyN+LliMvxHqV1sODqetUKmOL36Ba62C1RRPwKasVCx3wWvlxoSDg/FWlLUbYnCMCJR7HA71QECD/P8DO8wUFLfHRHqA/EXD+tp4jLNGjMIg7xbwf1q5zQMHNwuvI6U9WjqVQxZJSyOIVcdrvpthQrWZSzG6RUuljXFobpPbf5r7Ls2Knt/A3DgBj+IpwpelkDn9Kaa9SCEFH1+bos2GgR4xwhkI+dBz+QX2L7oEKUx380/96cf/XXC/ksSLmHy6u0PqnEo+hv/5y8+uUqr/cbFd/udmnwHgDCQHRli+IP129BJfgElyCzzX8E7VWdfLcNpp4AAAAJXRFWHRkYXRlOmNyZWF0ZQAyMDE5LTAxLTIwVDIxOjUwOjM1KzA4OjAwg2C8UQAAACV0RVh0ZGF0ZTptb2RpZnkAMjAxOS0wMS0yMFQyMTo1MDozNSswODowMPI9BO0AAABDdEVYdHNvZnR3YXJlAC91c3IvbG9jYWwvaW1hZ2VtYWdpY2svc2hhcmUvZG9jL0ltYWdlTWFnaWNrLTcvL2luZGV4Lmh0bWy9tXkKAAAAGHRFWHRUaHVtYjo6RG9jdW1lbnQ6OlBhZ2VzADGn/7svAAAAGHRFWHRUaHVtYjo6SW1hZ2U6OkhlaWdodAA1OTZAOR2QAAAAF3RFWHRUaHVtYjo6SW1hZ2U6OldpZHRoADU5NtPITc0AAAAZdEVYdFRodW1iOjpNaW1ldHlwZQBpbWFnZS9wbmc/slZOAAAAF3RFWHRUaHVtYjo6TVRpbWUAMTU0Nzk5MjIzNaK6+8IAAAASdEVYdFRodW1iOjpTaXplADIwMjMwQuL41kUAAABidEVYdFRodW1iOjpVUkkAZmlsZTovLy9ob21lL3d3d3Jvb3QvbmV3c2l0ZS93d3cuZWFzeWljb24ubmV0L2Nkbi1pbWcuZWFzeWljb24uY24vZmlsZXMvMTIyLzEyMjkyNTUucG5nVdScNwAAAABJRU5ErkJggg==;" parent="1" vertex="1">
          <mxGeometry x="288" y="380" width="75" height="75" as="geometry"/>
        </mxCell>
        <mxCell id="RJKqDijKu-WlhtUEkn75-26" value="" style="shape=flexArrow;endArrow=classic;html=1;width=14.285714285714286;endSize=10.668571428571429;entryX=0;entryY=0.25;entryDx=0;entryDy=0;exitX=1;exitY=0.75;exitDx=0;exitDy=0;" parent="1" source="RJKqDijKu-WlhtUEkn75-22" target="RJKqDijKu-WlhtUEkn75-25" edge="1">
          <mxGeometry width="50" height="50" relative="1" as="geometry">
            <mxPoint x="202.5" y="360" as="sourcePoint"/>
            <mxPoint x="292.5" y="360.5" as="targetPoint"/>
          </mxGeometry>
        </mxCell>
        <mxCell id="RJKqDijKu-WlhtUEkn75-27" value="" style="shape=flexArrow;endArrow=classic;html=1;width=14.285714285714286;endSize=10.668571428571429;entryX=0;entryY=0.75;entryDx=0;entryDy=0;exitX=1;exitY=0.25;exitDx=0;exitDy=0;" parent="1" source="RJKqDijKu-WlhtUEkn75-23" target="RJKqDijKu-WlhtUEkn75-25" edge="1">
          <mxGeometry width="50" height="50" relative="1" as="geometry">
            <mxPoint x="197.5" y="470" as="sourcePoint"/>
            <mxPoint x="287.5" y="470.5" as="targetPoint"/>
          </mxGeometry>
        </mxCell>
        <mxCell id="RJKqDijKu-WlhtUEkn75-28" value="提交知识图谱信息" style="text;html=1;strokeColor=none;fillColor=none;align=center;verticalAlign=middle;whiteSpace=wrap;rounded=0;labelBackgroundColor=none;fontColor=#000000;" parent="1" vertex="1">
          <mxGeometry x="200" y="345" width="80" height="20" as="geometry"/>
        </mxCell>
        <mxCell id="RJKqDijKu-WlhtUEkn75-32" value="维护知识图谱信息" style="text;html=1;strokeColor=none;fillColor=none;align=center;verticalAlign=middle;whiteSpace=wrap;rounded=0;labelBackgroundColor=none;fontColor=#000000;" parent="1" vertex="1">
          <mxGeometry x="200" y="475" width="80" height="20" as="geometry"/>
        </mxCell>
        <mxCell id="RJKqDijKu-WlhtUEkn75-33" value="知识图谱维护" style="text;html=1;align=center;verticalAlign=middle;whiteSpace=wrap;rounded=0;strokeColor=#000000;" parent="1" vertex="1">
          <mxGeometry x="40" y="365" width="20" height="120" as="geometry"/>
        </mxCell>
      </root>
    </mxGraphModel>
  </diagram>
  <diagram id="T51zAgsJU9muiDcLuQBd" name="Page-2">
    <mxGraphModel dx="1635" dy="866" grid="1" gridSize="10" guides="1" tooltips="1" connect="1" arrows="1" fold="1" page="1" pageScale="1" pageWidth="827" pageHeight="1169" math="0" shadow="0">
      <root>
        <mxCell id="haBXxOtGlobTMPMWv8xy-0"/>
        <mxCell id="haBXxOtGlobTMPMWv8xy-1" parent="haBXxOtGlobTMPMWv8xy-0"/>
        <mxCell id="haBXxOtGlobTMPMWv8xy-23" value="" style="rounded=1;whiteSpace=wrap;html=1;labelBackgroundColor=none;fontSize=16;fontColor=#333333;fillColor=#f5f5f5;strokeColor=#666666;" parent="haBXxOtGlobTMPMWv8xy-1" vertex="1">
          <mxGeometry x="201.5" y="280" width="122" height="125" as="geometry"/>
        </mxCell>
        <mxCell id="haBXxOtGlobTMPMWv8xy-31" style="edgeStyle=none;rounded=0;orthogonalLoop=1;jettySize=auto;html=1;exitX=0;exitY=0.25;exitDx=0;exitDy=0;entryX=1;entryY=0.25;entryDx=0;entryDy=0;fontSize=16;fontColor=#000000;" parent="haBXxOtGlobTMPMWv8xy-1" source="haBXxOtGlobTMPMWv8xy-4" target="haBXxOtGlobTMPMWv8xy-7" edge="1">
          <mxGeometry relative="1" as="geometry"/>
        </mxCell>
        <mxCell id="haBXxOtGlobTMPMWv8xy-4" value="知识图谱维护" style="rounded=0;whiteSpace=wrap;html=1;fillColor=#f8cecc;fontSize=16;strokeColor=#b85450;" parent="haBXxOtGlobTMPMWv8xy-1" vertex="1">
          <mxGeometry x="201.5" y="170" width="120" height="60" as="geometry"/>
        </mxCell>
        <mxCell id="haBXxOtGlobTMPMWv8xy-30" style="edgeStyle=none;rounded=0;orthogonalLoop=1;jettySize=auto;html=1;exitX=1;exitY=0.75;exitDx=0;exitDy=0;entryX=0;entryY=0.75;entryDx=0;entryDy=0;fontSize=16;fontColor=#000000;" parent="haBXxOtGlobTMPMWv8xy-1" source="haBXxOtGlobTMPMWv8xy-7" target="haBXxOtGlobTMPMWv8xy-4" edge="1">
          <mxGeometry relative="1" as="geometry"/>
        </mxCell>
        <mxCell id="haBXxOtGlobTMPMWv8xy-32" style="edgeStyle=none;rounded=0;orthogonalLoop=1;jettySize=auto;html=1;exitX=0.5;exitY=0;exitDx=0;exitDy=0;entryX=0.5;entryY=1;entryDx=0;entryDy=0;fontSize=16;fontColor=#000000;" parent="haBXxOtGlobTMPMWv8xy-1" source="haBXxOtGlobTMPMWv8xy-7" target="haBXxOtGlobTMPMWv8xy-16" edge="1">
          <mxGeometry relative="1" as="geometry"/>
        </mxCell>
        <mxCell id="haBXxOtGlobTMPMWv8xy-7" value="知识图谱构建&lt;br&gt;与融合" style="rounded=0;whiteSpace=wrap;html=1;fillColor=#ffe6cc;fontSize=16;strokeColor=#d79b00;" parent="haBXxOtGlobTMPMWv8xy-1" vertex="1">
          <mxGeometry x="40" y="170" width="120" height="60" as="geometry"/>
        </mxCell>
        <mxCell id="haBXxOtGlobTMPMWv8xy-9" style="edgeStyle=orthogonalEdgeStyle;rounded=0;orthogonalLoop=1;jettySize=auto;html=1;exitX=0.5;exitY=0;exitDx=0;exitDy=0;endArrow=classic;endFill=1;fontSize=16;entryX=0.5;entryY=1;entryDx=0;entryDy=0;" parent="haBXxOtGlobTMPMWv8xy-1" source="haBXxOtGlobTMPMWv8xy-11" target="haBXxOtGlobTMPMWv8xy-15" edge="1">
          <mxGeometry relative="1" as="geometry">
            <mxPoint x="100" y="310" as="targetPoint"/>
          </mxGeometry>
        </mxCell>
        <mxCell id="haBXxOtGlobTMPMWv8xy-11" value="数据获取模块" style="rounded=0;whiteSpace=wrap;html=1;fillColor=#d5e8d4;fontSize=16;strokeColor=#82b366;" parent="haBXxOtGlobTMPMWv8xy-1" vertex="1">
          <mxGeometry x="40" y="350" width="120" height="60" as="geometry"/>
        </mxCell>
        <mxCell id="haBXxOtGlobTMPMWv8xy-28" style="edgeStyle=none;rounded=0;orthogonalLoop=1;jettySize=auto;html=1;exitX=0.5;exitY=0;exitDx=0;exitDy=0;entryX=0.5;entryY=1;entryDx=0;entryDy=0;fontSize=16;fontColor=#000000;" parent="haBXxOtGlobTMPMWv8xy-1" source="haBXxOtGlobTMPMWv8xy-15" target="haBXxOtGlobTMPMWv8xy-7" edge="1">
          <mxGeometry relative="1" as="geometry"/>
        </mxCell>
        <mxCell id="haBXxOtGlobTMPMWv8xy-15" value="实体关系抽取" style="rounded=0;whiteSpace=wrap;html=1;fillColor=#fff2cc;fontSize=16;strokeColor=#d6b656;" parent="haBXxOtGlobTMPMWv8xy-1" vertex="1">
          <mxGeometry x="40" y="260" width="120" height="60" as="geometry"/>
        </mxCell>
        <mxCell id="haBXxOtGlobTMPMWv8xy-16" value="知识图谱&lt;br&gt;可视化" style="rounded=0;whiteSpace=wrap;html=1;fillColor=#e1d5e7;fontSize=16;strokeColor=#9673a6;" parent="haBXxOtGlobTMPMWv8xy-1" vertex="1">
          <mxGeometry x="40" y="80" width="120" height="60" as="geometry"/>
        </mxCell>
        <mxCell id="haBXxOtGlobTMPMWv8xy-17" value="" style="shape=image;verticalLabelPosition=bottom;labelBackgroundColor=#ffffff;verticalAlign=top;aspect=fixed;imageAspect=0;image=data:image/png,iVBORw0KGgoAAAANSUhEUgAAADUAAAA/CAYAAABAfYAWAAAABGdBTUEAALGPC/xhBQAAACBjSFJNAAB6JgAAgIQAAPoAAACA6AAAdTAAAOpgAAA6mAAAF3CculE8AAAABmJLR0QAAAAAAAD5Q7t/AAAACXBIWXMAAAJYAAACWACbxr6zAAAAB3RJTUUH4wEJAzMloUWqmAAABaJJREFUaN7d2luoXNUZB/DfnDmaqCdqxRhTYyNqA0YbvBAU8UJbRUjw0qrNgy2xKoq0gqIPindBEazaB0VoNaKUqFG8PPStpU8GUV9sUhO0aTVNNFEbSaIx1zM+fHvmrDOZ2XPfc8gfhtmzZ62913+t9f3Xt75vcQCiVH9jztx5w25TQ2z49KPuSNURmoGjcVgj8gVgN7biS+zrhFytsQmhH2ApfoU5mD4EQjIi2/AOnsm+2yJWqiP0QzyFKwxndJphE+7Gsk5JjWaEbsr++xb/xMas14okWcEYTsGJ2b3PRWe/24rYaHJ9Gn6ZXW/GrfgrdhRIJsUIfoSHsQSzcSPex3hexZTUuZiZXT+Pl4dEpop9WIcHcb4wjYU4EltSUasftdGRcrl6/ePk/idphQYyf4xiVLEiRuzzjNTRmJ+1b4tsFs2ZO28SsdHSRLtSlRtpQmghrsWFOGLAhKooZWRgFlYIuV+LV/EatqbE0ulXafHwq/HHrMeGhbKwLZiLi3EJbsHmKrHRvCcko3QmHk8IbcR/tDDYAaEiHIP5OER09ibcJlukR9t4yIiQ+eOz32/g3ozUMFARpnIZ/iDEbQmeFUtQW6SOxNnZ9SY8gH8NiVAVO/EifoI7hHCd2wmpMeE6ERK7rtcWdeKcNkJiFmlbajfbIZVir8l2dKiY22PyhaaC/+J/1Ub1QixR5XRJOaRbUinmidX+YkzTWj0/wSNYjvEBbHFq7++GVNVQH8ZVHdQ7BU+KEXs7uzeGBTiozWeU8B1WyXHfuiE1njXwp9nvj/F3zUeqIpRzkVhEL01IXS9Gr13PpCRM4L6sg/pGqmJi8ygjdHOLOhfgIjHvU0/kOGGXnWJ23p+92FRKEo1VrYFBpyP6lJDnmVrbZPU5X+DPgybVlFAbWC+mUl/RN1IFdUINeeo5NFKtGtYLhkYqIVTGwR1U3aWDnW+3qNQ1smmZBjgDtwvJb0coCEf6CazuN6l9SSNmCJmu5JQ9yoQCpkr4W1zT4bsvFAvw7/pJagQb8H8RF7xc+H97c+rMEq4Umf+X4X3hPnXSjj14L69AN6RKYgr8BXficJzVZt1VYvtdxXL8Q/tuErGV3zQIUuN4VAQ/FgsPo9ykfAXbsUa4NqmW7zV55PqCXoRiKx7D08IxHckpu0MERzuKiedh0OvUDl0EPAeZXemF1AycKrYh7cpxrygJgVojR5i69dIPEja1VP60GwSpbbhLlizoFylCnk83sf0oEtPFot0U3arfN7hfZCGKHqnteK7fpKr4W/aZcuiaVK+S3Cvy1LPIqVMYuh6pqZrF74mUiCb9Qsh7kevUFpEU/Hc/SVWElD+E8woiU4/DRPq2b6QI9/8j7Xvn/UJJRJ/W5hXqdp3aLbINy3romG5JbZez6+2WVBVfm4i0TikckOvUAS/pnR4fmC4yeEWiJERqs2TDuR+pysQSsyu532rdKYtw8a/bKNtv7M7e/VJTUuP7anHBj5P7x+c8tCKyFz9rUW6QOD+XVNLRK/GVCKJciw/wlv1Horr1eFLE7Yo8OlfCZ/hTXqHUplbhTdwgzks8Jw44bRbByHq8kpUv2ineIz/GOInUXnGcYJbI9o3h5y1esMsUxCiTst0bRcryN7gSJ4tg5TR16jgF16la+xpNnS9FAH6R8MSXiuwdoXpDP7GZEEqzHzurF7XpV+35pMLW7POZsKtZOEmclFw9RRbfE5Lrmnrv51Gk0ypr+DYRkF8gEsj3iPOs6w3nwBWR/F4s1JeYXSubkmqAcSGhizJSS8S5vzVC2os+W1sWWf0FJkJ0r0s895YNSqbZdeJAyLEFkmiH5Jv4vTCT1uf96rAMH4ozE+cIVSx3UL+f2ClyZCvwgtgG1UynralTJwplce7hCJ3lavuFisigfCU2jFJCbZNqQm7KYNhrZiH4HjIUXyzSvL7AAAAAJXRFWHRkYXRlOmNyZWF0ZQAyMDE5LTAxLTA5VDAzOjUxOjM3KzA4OjAwc0gpuQAAACV0RVh0ZGF0ZTptb2RpZnkAMjAxOS0wMS0wOVQwMzo1MTozNyswODowMAIVkQUAAABDdEVYdHNvZnR3YXJlAC91c3IvbG9jYWwvaW1hZ2VtYWdpY2svc2hhcmUvZG9jL0ltYWdlTWFnaWNrLTcvL2luZGV4Lmh0bWy9tXkKAAAAY3RFWHRzdmc6Y29tbWVudAAgR2VuZXJhdG9yOiBBZG9iZSBJbGx1c3RyYXRvciAxOC4wLjAsIFNWRyBFeHBvcnQgUGx1Zy1JbiAuIFNWRyBWZXJzaW9uOiA2LjAwIEJ1aWxkIDApICDT3YPcAAAAGHRFWHRUaHVtYjo6RG9jdW1lbnQ6OlBhZ2VzADGn/7svAAAAGHRFWHRUaHVtYjo6SW1hZ2U6OkhlaWdodAA3NjVdLISLAAAAF3RFWHRUaHVtYjo6SW1hZ2U6OldpZHRoADYzObveBo8AAAAZdEVYdFRodW1iOjpNaW1ldHlwZQBpbWFnZS9wbmc/slZOAAAAF3RFWHRUaHVtYjo6TVRpbWUAMTU0Njk3NzA5N5tG4+0AAAASdEVYdFRodW1iOjpTaXplADE1MjIzQoZjEm8AAABidEVYdFRodW1iOjpVUkkAZmlsZTovLy9ob21lL3d3d3Jvb3QvbmV3c2l0ZS93d3cuZWFzeWljb24ubmV0L2Nkbi1pbWcuZWFzeWljb24uY24vZmlsZXMvMTE5LzExOTQ4OTEucG5nGikPtQAAAABJRU5ErkJggg==;" parent="haBXxOtGlobTMPMWv8xy-1" vertex="1">
          <mxGeometry x="213.5" y="306" width="37" height="43" as="geometry"/>
        </mxCell>
        <mxCell id="haBXxOtGlobTMPMWv8xy-18" value="" style="shape=image;verticalLabelPosition=bottom;labelBackgroundColor=#ffffff;verticalAlign=top;aspect=fixed;imageAspect=0;image=data:image/png,iVBORw0KGgoAAAANSUhEUgAAADcAAABHCAQAAAAJ8BcMAAAABGdBTUEAALGPC/xhBQAAACBjSFJNAAB6JgAAgIQAAPoAAACA6AAAdTAAAOpgAAA6mAAAF3CculE8AAAAAmJLR0QAAKqNIzIAAAAJcEhZcwAAAlgAAAJYAJvGvrMAAAAHdElNRQfjAQkDFC11W5DPAAADOElEQVRYw+3ZT2gcdRTA8c/sbrauSWqSJkSjYEVUKIhY8SJepAh68B/2Ioj3FiyCYHsQPXioUKQWrCAS6EERvFQqFAVRjAdBFKMSD6VViy2xTf3TNCZNNrvjIZPZndk/Rru7gszby+/Hm/f7znvz9s17TOBTW4U6LYF5ex1vVJwSdul3yoONuJNdw4XOeKSXuNCsx+thhXi16oRFQUee3E1GotW1DtvsyHp21HCX7DItf8WoUMGbHo33415R9lYaF5o33xHfcsqJ/bBXFRxZU9WkM4Fsds4WB+2xKYnrpgw5YI984cpP2qAUvWCgV97BgOe6g2uVBbluBLNq0meq0S60xTOG15XrVeVXd3bFU673U8RY7sWzK9SC28tUyXAZLsNluAyX4WJpfJsXlRL7ssVoFehPtL0VSyot7dbkT6vtcQ/ZF7/4Ydn33jElNOg12+oAq876yFFzYIcXUz1KYNmzvkgen24edjcZLObsFhgx3aCp+th28FQTu7L7caPTrZuHZqPlqJfco1LnWc2D+xwyjrCJZZDuyVp3YoumLLrGdsMY8bCZSFP1uTmj7jAI7rXT4ZRdED33c+lj08HcFe1/tFVO0fPR/phxXwmFLntAYMBjse2H+jypKhT62e02GzJkSEmQDObf9Zl5A9Hqcl0CVYQWHHWb/eBWY3Eox0xaBjkHvLfRYI553ZJRd0X7b600XPONFUWU9Me4Te6O9RNpg9a4/sQgP+3dJteUojIRJv46bWQjTXvFl552Ih6Aa9m7I7L/w8U4By+a9LsAQfo/1w53yTELAr/52pRfErqrlfTb6YloP+NCHe6gM//cuwv2tTDrs99eg25xFVjwtvqpp818/28moJxtiVAf8v5GTRtx63eZbzKlNV593htetqpWQQrtZvzGA077QCgwaymlKZsyG+dg2ZwZn/guKm1nHRcInIvfIE0lXVXyioqK+prcZV+kW9OnQ9zKrm1VaVaIa/61lmqTMtAg/+/mIcNluAyX4TJchvvPcZ3/ircmdR12rXnIGXddB74BNcImaqcGTroZVMxGk0unpc9E5NZKzbu8G7oCS0jPU6WXwFzBDypdy8m0lP8CSGmI599NlnsAAAAldEVYdGRhdGU6Y3JlYXRlADIwMTktMDEtMDlUMDM6MjA6NDUrMDg6MDAo6080AAAAJXRFWHRkYXRlOm1vZGlmeQAyMDE5LTAxLTA5VDAzOjIwOjQ1KzA4OjAwWbb3iAAAAEN0RVh0c29mdHdhcmUAL3Vzci9sb2NhbC9pbWFnZW1hZ2ljay9zaGFyZS9kb2MvSW1hZ2VNYWdpY2stNy8vaW5kZXguaHRtbL21eQoAAABjdEVYdHN2Zzpjb21tZW50ACBHZW5lcmF0b3I6IEFkb2JlIElsbHVzdHJhdG9yIDE2LjAuMCwgU1ZHIEV4cG9ydCBQbHVnLUluIC4gU1ZHIFZlcnNpb246IDYuMDAgQnVpbGQgMCkgIHILdZYAAAAYdEVYdFRodW1iOjpEb2N1bWVudDo6UGFnZXMAMaf/uy8AAAAYdEVYdFRodW1iOjpJbWFnZTo6SGVpZ2h0ADM3OD2PYasAAAAXdEVYdFRodW1iOjpJbWFnZTo6V2lkdGgAMjkxSOPO6wAAABl0RVh0VGh1bWI6Ok1pbWV0eXBlAGltYWdlL3BuZz+yVk4AAAAXdEVYdFRodW1iOjpNVGltZQAxNTQ2OTc1MjQ1aWvgaQAAABF0RVh0VGh1bWI6OlNpemUAMzIyMEJNiYNFAAAAYnRFWHRUaHVtYjo6VVJJAGZpbGU6Ly8vaG9tZS93d3dyb290L25ld3NpdGUvd3d3LmVhc3lpY29uLm5ldC9jZG4taW1nLmVhc3lpY29uLmNuL2ZpbGVzLzExNS8xMTU2ODQzLnBuZ+LcApkAAAAASUVORK5CYII=;" parent="haBXxOtGlobTMPMWv8xy-1" vertex="1">
          <mxGeometry x="273.5" y="306" width="33" height="42" as="geometry"/>
        </mxCell>
        <mxCell id="haBXxOtGlobTMPMWv8xy-20" value="" style="shape=image;verticalLabelPosition=bottom;labelBackgroundColor=#ffffff;verticalAlign=top;aspect=fixed;imageAspect=0;image=data:image/png,iVBORw0KGgoAAAANSUhEUgAAAHIAAACACAQAAAB9jvXkAAAABGdBTUEAALGPC/xhBQAAACBjSFJNAAB6JgAAgIQAAPoAAACA6AAAdTAAAOpgAAA6mAAAF3CculE8AAAAAmJLR0QAAKqNIzIAAAAJcEhZcwAA6mAAAOpgAYTJ3nYAAAAHdElNRQfjAQkEIicZ3f4hAAALn0lEQVR42u3da3BU53kH8J92tbojJBBCSFxtJLCRwYBxbNdObew2ME0bF09m4iTTzvQ2zaS5zDSOvzjpl2QaN2nGbeJ42g/pl7pxpmnS2k0dh2kujUOwMZdiMAZxMZYshC4Iobu02u0HLbDArvailVah+p/RjnT2vOc8f73353nf/2Ee85jHPGYZBTN89/gj/nnR2Gf88WtDMqRIkZBCIQvVWqjSAgtUKhESVSqEccMKjBtxSb9LBlzUqc+YCePGjBmfeyQrVFqoQq1V1lhpmSWWKLuSg5c/r0WUWA5O5uSQLl3avesdZ3Ua0OeSgXyTXGy5esut1aTRSgty8i+bRL+zWrQ4qU27Vhdmm2RQk2ZN1lmnUXUOqSVCrxbHHXfcUSdMzDzJQre7zzbr3WrpDJO7Hh1OO2afPd7KjGr6JIOqPWiXjepnPO+mQq92b/uhH+lMl2p6JEut9rjfsVqVQB4JXkWf017ygrOGcnG7Cts87azR63q1/B+j2nzD+1RMj2DAJl/xnkjeCSU7Itr8tS0Ks6VY51P25Z1GOsdhn82uGdzmBYN5Nz/dY8ALHkhGJXHDE/Ixn7Il62IedXV0yphBgwaMYtQ4QopRrEK5ckVX7Eg0Lkofh33d88LpkSz2557QkPFDwiZMGHdRmzZtOnTr0mMw9k0EEREEBBAQFFSoXI0aNZZpsMJyC4Vi32SKNl/1D0ZTkyz1SU+qyeDWwwYNaXfUcS1adBkXNiEsYkI6s4sCQQGFggqF1Fqr0TrNlilTrjQDW7o87VkjU5MM+rin06zEEzqd966DDnrTOWERUZGM//83IqBAQKFl7rDFZissVSuYVtoOT/rna624lmSBBzzn9jRudcbbjtjngDM5oTU15TW2ukuz9dakcf1Rn/Bq8hK02A9StmO9fugpO9TOMLUbUWuHp/yX3pQ2fs+iZDcJ+qiBKRO3+qYPWT3r9OKx2oc8q3VKO/s9nqxwL/Q/UyQ87xn3WphXgpdR5T5/5/wU1v48saUFHtaTJMmQV2xXnm9u16DCw35sOInF3bYnJvlXSZJc9HV1M+zyygYBdZ7RlyRbvpDI4oDvmkhw+ZivzZFCmghV/tZYAqsnvJBoUhhIUiP3pdWl5A8bvJGkVl4hGc828cjijIv55jElep1JeL7s6q/xJBPP+Tdanm8eU2KFjQnPBxL+mmSM0OgzVuSbSVKs9FlrE36TkE0gSdmOGvU9m4TyzecGhNzp+0ndMm8kbniSkYwKO+xP5lh+rvCn3kzYH2RJcrLn+Q9/kOch3WWs8YdeSjoQuIFk+hPTUr/nQb/yMz91ILcBmQxQZIuH/Kb7MglJZDb7rvQBD/mYI37hJ07NKtWQW233fs0aFWWWNHMXQ5FmzXY474RXveqYYeE0PQCZokBQoVK3u9/9mtSqyuY22forq1Rp8rAhXQ543SFnDRo1dqOHJQsUK1Ks3Gqb3G2rGmVKsx89Z+2URYEyZWo0+bCIHseccMpJHYYMGTZi1Gha8YqgYsVKlClVZplbrdVkvcUxZ9c0MR2SV00MokGDR8CADh06dOl1Qa9Bo8ZjzsgJE7EUBQoVK1KkXLVFqtWqU2fpdN3+M0PyelRYe90oZMywYaMKjAujUAhFSpVm2ojMFZI3okhRPqdrqQNxM7gqI0dIaWHqnGwxYUXu60mOMKBVUNPUF6XOyT12+Yxf6sk3nxvQ45ee8GF7Ul2YOifDunzbi37XDs1uUZJvbhhzxmEve0m3xYlCPJmSnES3f/K8zba7V7PVeXNrRb3jiH1+ar/hdBNl0rqOec1r6m1wm83usn6W2uZJhB2z30HHHNWeWdLMzWzXbrcaKyy3ziZ3WhuLMOY6d6OiCGtz2EGHvaNNdzY3yjYvunU76BWVKtVrtl6jRrUKBQUEBbKiHBUxIWJCWKcWLd52xHn9+tIvnLkjOYkx3bqd9pqQkCKLrbVSg3r16pULKhQUjJEOEPuMiMY+IyZMmBA2YcA57dq1aXVSjzHjxnMxnctNrbpsSpcTVxZ+BlRaGPupVC6gRFBIEcaMCxsVMeiSPpdcclF/3CqTnIYDc910xBs3ojPHd88Sc2N91TzJeZLzJOdJ3myYJ3mzYJ4kZnoPUC6Q0sLUJOviA9NzEOWWTZ/kvckXy84JPODe9C9OHp887NE5WneDdnkzV0HYFp9Tl29GN6DOE07mMtLc70W75pD3tcJjXtKfXqQ5XZJRUR1+YJfqWXVf3YhC1R7z7zpSWJslyagJvX7lL23IC9VCizT7nL16p1gQkYDk1T4m4HVb03hUVFivX/iR/9WhezoOprRRqkadO33A+1UpTKvv3u/uy36KzPOjQEitxzym0377vOVd7TpyEmG+HsXqNFjhdttszX6t9HQKXa2ddgo7pcUZ7zir3Tkd16/lzxgl6tSrt9JqazS5ZbpVY/o1q9A66xDRqUu3bp06dDivW69evcZS3KFItUWqLLHUUnVq1aixRG2ueufcNR8BdVf60hGDhgwbNWLUsAGDBgxjzJjJoCylKlQoV6pYiWKlypXNREBpZtrIEiUWX3MmEtvbM+lWLojt8AnMzkhqtjqCWaKT7OGpMDzjm1umh0jqTix1Tu51yDb35Hmckxhh+7xuo4emS7LFl9TZ4YPuyWhr2Exj2F7/abdzvjx9kgG85ZgX3WG7nVYJ5tVbMLnF9xW7HXJK1KLUVS6dQliAqJNO+onn3O+33aNa0awX4LAxvfZ6xR7teuOsywHJq+jTp8V3LPY+j7hbjTLlM75we8KQQV32+m+v6TGceinEdEgyGYvs967vK7HWZls0W6JSpQU5LcZR/S7pc8Eph+x3xECsr80Y2Ra5iIhxBx30bWXWWmOVVerVqFKpUmVW7q8hl2IB2W7tzjrrjJPTl0vIRb0acthhEFKnxiLVFlmkMrYxu0y5EgEhgdjSwXFhEWOiRgwaNGTQgD4X9OrVo0dHLldF57bxGNeqNe7vEsVKlChWpEBhbCUyYRERYVFjRo0YMTrtucuskbweI0b0zegT0sLcdDXOk5wnOU/ypsY8yZsF/+9IJhtez+39BMmsi2MTTzLxCD80/W1EM4pgku0zcWziSSZ2CDXnQcokEyzVnPB83NwlnuS5hHm50R9lt6FvVlDlj92R4HzEuUSXF/hikg20fZ6xbA42UQH1/j6pLMZTidqYAtuTCpwM+7FH5lCcGSr8lt1TCJw8mDjZQj+fIqjZ6Rt+Y44U3Cr3e1bnFNb+TGXipEGPTxmFj2rzLY+mJeE0c1jj9z3nvSnt7PeR5H3CYv+WMkx90cu+YOesC5+y1E5f9LKLKW3812vlo64XArvfczak8cAzjjviDQeczkZWNiME3WKrrZqtT0vn4IhPeDU5SQI+7m/SlnTrcl6rQw54U7vxHEu6hTRotsVmyy21JG1Jt897fipJNyjxSU9akoFJwwYNO+eo405o0ZmVOF8wpjoYslSjRuttUKc0Y3G+r/hWKnE+KPZnPp+FQE04tlfnWpnFboOx8zfKLE7u/ylXY4kayyy3XIOqmBZh5sPJVl/1j+nILEKhj/p0WgteEuN6wcxJv+oIMYXzyX0+JSqUK8uhYObXfCezEMI2/5JCxW4uHVNKn06Fpf7i10LENmK/T2c/jQjY6Mta57Qccasv2TTd6WCFu+a0sPTdqUUD05cI/4gPWqVqTkyhozGJ8O+mJxGemdj7Ax61WUNyzc1ZwAXvOeplu3Mt9h5P9Tb32eY2t876WuZzTnvLPnu8PVOy/fEIaLLBOk3Wabxu7VXu0RN7AcMJR5yQhVttegHwass1aNCoUaNVyeZwWeGSs1qciL1Ko+3KQogskJsof3nsDS9LrLLaSsvUqs34pSiDOnU5F3spSldszcDg9M2bmdfbFCoUUqlWlQUWWKhCsRJRJbFw+ogCI0YN6NOv30WdLhkXFp6rr7dJfvf41xRdHZ9eHdfG93vzmMc85nHz4P8Axj/YH98VfuEAAAAldEVYdGRhdGU6Y3JlYXRlADIwMTktMDEtMDlUMDQ6MzQ6MzkrMDg6MDBQmFW7AAAAJXRFWHRkYXRlOm1vZGlmeQAyMDE5LTAxLTA5VDA0OjM0OjM5KzA4OjAwIcXtBwAAAEN0RVh0c29mdHdhcmUAL3Vzci9sb2NhbC9pbWFnZW1hZ2ljay9zaGFyZS9kb2MvSW1hZ2VNYWdpY2stNy8vaW5kZXguaHRtbL21eQoAAAAYdEVYdFRodW1iOjpEb2N1bWVudDo6UGFnZXMAMaf/uy8AAAAYdEVYdFRodW1iOjpJbWFnZTo6SGVpZ2h0ADE0OBUm5gYAAAAXdEVYdFRodW1iOjpJbWFnZTo6V2lkdGgAMTMyKUPJggAAABl0RVh0VGh1bWI6Ok1pbWV0eXBlAGltYWdlL3BuZz+yVk4AAAAXdEVYdFRodW1iOjpNVGltZQAxNTQ2OTc5Njc5Bi/o5QAAABF0RVh0VGh1bWI6OlNpemUAMjI0MkJGUrTFAAAAYnRFWHRUaHVtYjo6VVJJAGZpbGU6Ly8vaG9tZS93d3dyb290L25ld3NpdGUvd3d3LmVhc3lpY29uLm5ldC9jZG4taW1nLmVhc3lpY29uLmNuL2ZpbGVzLzEyMi8xMjIyNTg1LnBuZ3GHrTEAAAAASUVORK5CYII=;" parent="haBXxOtGlobTMPMWv8xy-1" vertex="1">
          <mxGeometry x="214.5" y="355" width="36" height="40" as="geometry"/>
        </mxCell>
        <mxCell id="haBXxOtGlobTMPMWv8xy-21" value="" style="shape=image;verticalLabelPosition=bottom;labelBackgroundColor=#ffffff;verticalAlign=top;aspect=fixed;imageAspect=0;image=data:image/png,iVBORw0KGgoAAAANSUhEUgAAAGAAAABgCAQAAABIkb+zAAAABGdBTUEAALGPC/xhBQAAACBjSFJNAAB6JgAAgIQAAPoAAACA6AAAdTAAAOpgAAA6mAAAF3CculE8AAAAAmJLR0QA/4ePzL8AAAAHdElNRQfjAQkDJQGB3vueAAAGjElEQVR42u3cfWxV5R0H8E9Lawu1oOVNxJdFWHwJ8gcvyRgviTN1m2MJG3SbDKIGfPlDk6GBuZgt29iL0wUyZ4a4mYhlfzCCHW4rwzlwW4xkQwzblE3rAK2QIq2hxQKW9uwPDpfbctt7bu89PWXr9/5z7nOec57v9zy/8/ye83t+59AfLHNYEPOvUU2/uEVAjabY6QcCu1waB/25DgwI/cBBV2enU5Ij/ameSJ22U7POGC5RidGKQVBoAdM9aWrqX5Ovei9sqnDoNEmtsdHVRsdYPzQj7X+HBo0Fpn8Gp6NXjX79Kj2iultJUcGv/hkMy6VyVAqjrXFHuP0nH8RCvF+IJqDY1y0P677k+9qTpn0O0e6BO9wbbv3dfU7FZDr9QnYqxe72qErwqmVez81G40b2HljkUaPAEQ/ZnTThnsjWA1N9O6Tf5iEvJk03VwEzPe160GyFDUmTzYS+TOh6T5oGujzi6aSpZkbvPVBpdUifZ6xPmmiuAqqssQB0ecoqbUkT7Q2ZTehiP7A83N5spdakafaOzD1wv7vCrb2+M5jpZxJQ5C4PhuV/s9y+pCn2jfNNaInHwpH/Dfd4LWmC2dCzBz6d8rutvjn46fcUMMOPXQbe9zV1vRzTlTTpdKSb0MW+ZwrosN6LruyF/sTBNJ1LF1DlunCr2J2WKsp4RKDU6KRpZxYgRXmYiUkTi4p8Hk2OOJ40/cyeuEtz1rhAkaN+pCVp+pkFNFvq7aw3aqvDSZPvTcBpb2tImlhUZL4HBtEw2T8BFxCGBCSNIQFJY0hA0hgSkDSGBCSNIQFJY0hA0hiMAs7GnYLCpxr0hhEuLdhD0Lm4U4krnIuUdGpxIg4BVWosdI3SAgk4F3cab7PTKQEdGtTZ3Fcg4SoHBQKHXBu5uU/aqXOA0m8CnXZ0y9bIW0CVnQNG/uzvBVXpFPIzoRrzwq1WH+Z1puyoMBLcrCZ9xS4fASMsDEexZz2pRdBLNDV/BIpUecAiFFuoNnO2Rq4mNFGDQOCYWTER747ZjgkE3nL5ucJ8/MCwcOT5cIBCjEdDM70o3W4K48giOJy4WimMgLhsP0Irg3EqkRMueAGFmQtlRrkZppuARq/a41Rqzw1ucqV2//SKw0rNd4l6TT2OH2m+Ir+O7mFyHUb7rj/bc9pS/rPNL0wCRZY4INAl0GmvW/ETgYfPO8NSXeqUp/5f61CY0XtV/D1wt9XGeM5L2gRGmmupj9yny0JP2O8x7ypzo9vNUm+jxW6zoVsW6ki3K1LvZPRGC9cDczRp96DhqZIyNaah3DaBL6Vd1ctRaosglV5yBp9xwgEfTyvJ2ANx3MTlVhjncWvT5u+nbLYHo3zMMW+myv/tEDrswiIj0s5Srdzvs68UxSFghmr7/Czjiv4JLUaZfV75VvvNSZuSjDHXMRuzu8g4BMxU6c/eybivVR1We9y8MJXzDN60VUWasJvMsMNfszcWh4CJONjr3p/7qXL322are01IlW9x3GfDVx5K1WCTj5IRUKKv/PNjVlpotd0+YZ3fuDks3227mWF6+UzVdkVL8oxDwFGM72P/Kdt8y+d8wU7TfSM0pZNqsUQ5vuwSz2tOSsA+gWkqstQ6brtl3jDNNWHJX+wxz42ucKv2KPYfl4BX/MMsn49Q8x1vKU050xY7jHKbL5psh13JCThkvTLf7fGc9ilTUKE6LVlnguscSktZ+J02883XZWN/UvwL54krbRHY7x5XG6XKFA9rtkmpxdrVm6NCmck2CKxJO264eoGTXjMuQ3sDOBdqs1KjxdZ5z/tKTTBSvbU6vG6rBWb5l5Mmu8xW69KOO+FZtyjzS0eiNhXXZO4/Vqi1wDSVTnrZH23Xir3u9IwFblDmZb/1fI+s1O3WqPCr/jVa2On0GVxkuLIM5eVG5BxNjdGEep+x9OZLc5gk993K//VDfacOUNE9WhkbxoTOsSP9Bch8TOgDDSZhpAesdTRm+mOtDKOjDemBtHwEtKtTrRiL3DJgwd0udZkWOuhfeH3HgIfXt3c32Pxu4har/GEAc6m7vGBV90hsvsPobl+JYYlpvGE4rSn7ElP+fqDFerUFXeSbbJNxaFKjMf5FPmgv6Ouhw8Nh8rRG72arPBhjo2c5FUVxkINRQL/UXrD4HxUQx8cWoiOn1ksylk2SXN90mZTL2Jip6mi1uXwYoeAoyeUdnXQBZwet4uifpYgZOQ6jg+SdjBQO5/4WZ0341DkYfhE/z/NfALVCawC8ZWIAAAAldEVYdGRhdGU6Y3JlYXRlADIwMTktMDEtMDlUMDM6Mzc6MDErMDg6MDB7vKFkAAAAJXRFWHRkYXRlOm1vZGlmeQAyMDE5LTAxLTA5VDAzOjM3OjAxKzA4OjAwCuEZ2AAAAEN0RVh0c29mdHdhcmUAL3Vzci9sb2NhbC9pbWFnZW1hZ2ljay9zaGFyZS9kb2MvSW1hZ2VNYWdpY2stNy8vaW5kZXguaHRtbL21eQoAAAAYdEVYdFRodW1iOjpEb2N1bWVudDo6UGFnZXMAMaf/uy8AAAAYdEVYdFRodW1iOjpJbWFnZTo6SGVpZ2h0ADUxMo+NU4EAAAAXdEVYdFRodW1iOjpJbWFnZTo6V2lkdGgANTEyHHwD3AAAABl0RVh0VGh1bWI6Ok1pbWV0eXBlAGltYWdlL3BuZz+yVk4AAAAXdEVYdFRodW1iOjpNVGltZQAxNTQ2OTc2MjIxKuksGAAAABJ0RVh0VGh1bWI6OlNpemUAMTYwMDRCJw/inQAAAGJ0RVh0VGh1bWI6OlVSSQBmaWxlOi8vL2hvbWUvd3d3cm9vdC9uZXdzaXRlL3d3dy5lYXN5aWNvbi5uZXQvY2RuLWltZy5lYXN5aWNvbi5jbi9maWxlcy8xMTcvMTE3NzY3Mi5wbmeLF7+JAAAAAElFTkSuQmCC;" parent="haBXxOtGlobTMPMWv8xy-1" vertex="1">
          <mxGeometry x="270" y="355" width="40" height="40" as="geometry"/>
        </mxCell>
        <mxCell id="haBXxOtGlobTMPMWv8xy-22" value="数据源" style="text;html=1;strokeColor=none;fillColor=none;align=center;verticalAlign=middle;whiteSpace=wrap;rounded=0;labelBackgroundColor=none;fontColor=#000000;fontSize=16;fontStyle=1" parent="haBXxOtGlobTMPMWv8xy-1" vertex="1">
          <mxGeometry x="228" y="285" width="67" height="21" as="geometry"/>
        </mxCell>
        <mxCell id="haBXxOtGlobTMPMWv8xy-33" style="edgeStyle=orthogonalEdgeStyle;rounded=0;orthogonalLoop=1;jettySize=auto;html=1;endArrow=classic;endFill=1;fontSize=16;" parent="haBXxOtGlobTMPMWv8xy-1" edge="1">
          <mxGeometry relative="1" as="geometry">
            <mxPoint x="200" y="381" as="sourcePoint"/>
            <mxPoint x="160" y="381" as="targetPoint"/>
          </mxGeometry>
        </mxCell>
      </root>
    </mxGraphModel>
  </diagram>
  <diagram id="Ra0ZpysEPDZncDqNPKWq" name="Page-3">
    <mxGraphModel dx="1128" dy="560" grid="1" gridSize="10" guides="1" tooltips="1" connect="1" arrows="1" fold="1" page="1" pageScale="1" pageWidth="827" pageHeight="1169" math="0" shadow="0">
      <root>
        <mxCell id="BGiYdShvEvHDMplZWwYh-0"/>
        <mxCell id="BGiYdShvEvHDMplZWwYh-1" parent="BGiYdShvEvHDMplZWwYh-0"/>
        <mxCell id="BGiYdShvEvHDMplZWwYh-24" value="" style="rounded=0;whiteSpace=wrap;html=1;fontColor=#CC6600;align=center;" vertex="1" parent="BGiYdShvEvHDMplZWwYh-1">
          <mxGeometry x="10" y="230" width="640" height="140" as="geometry"/>
        </mxCell>
        <mxCell id="BGiYdShvEvHDMplZWwYh-5" value="&lt;span style=&quot;font-family: &amp;quot;microsoft yahei&amp;quot; ; font-size: medium&quot;&gt;烟草专卖品&lt;/span&gt;" style="text;html=1;strokeColor=none;fillColor=none;align=center;verticalAlign=middle;whiteSpace=wrap;rounded=0;fontColor=#00CC00;" vertex="1" parent="BGiYdShvEvHDMplZWwYh-1">
          <mxGeometry x="110" y="250" width="90" height="40" as="geometry"/>
        </mxCell>
        <mxCell id="BGiYdShvEvHDMplZWwYh-6" value="&lt;span style=&quot;font-family: &amp;quot;microsoft yahei&amp;quot; ; font-size: medium&quot;&gt;烟草专卖局&lt;/span&gt;" style="text;html=1;strokeColor=none;fillColor=none;align=center;verticalAlign=middle;whiteSpace=wrap;rounded=0;fontColor=#FF0000;" vertex="1" parent="BGiYdShvEvHDMplZWwYh-1">
          <mxGeometry x="370" y="250" width="90" height="40" as="geometry"/>
        </mxCell>
        <mxCell id="BGiYdShvEvHDMplZWwYh-17" style="edgeStyle=orthogonalEdgeStyle;rounded=0;orthogonalLoop=1;jettySize=auto;html=1;exitX=0.5;exitY=0;exitDx=0;exitDy=0;entryX=0.5;entryY=1;entryDx=0;entryDy=0;fontColor=#CC6600;align=center;" edge="1" parent="BGiYdShvEvHDMplZWwYh-1" source="BGiYdShvEvHDMplZWwYh-15" target="BGiYdShvEvHDMplZWwYh-6">
          <mxGeometry relative="1" as="geometry"/>
        </mxCell>
        <mxCell id="BGiYdShvEvHDMplZWwYh-15" value="&lt;span style=&quot;font-family: &amp;#34;microsoft yahei&amp;#34; ; font-size: medium&quot;&gt;组织&lt;/span&gt;" style="text;html=1;strokeColor=none;fillColor=none;align=center;verticalAlign=middle;whiteSpace=wrap;rounded=0;fontColor=#FF0000;" vertex="1" parent="BGiYdShvEvHDMplZWwYh-1">
          <mxGeometry x="370" y="310" width="90" height="40" as="geometry"/>
        </mxCell>
        <mxCell id="BGiYdShvEvHDMplZWwYh-7" value="&lt;span style=&quot;font-family: &amp;quot;microsoft yahei&amp;quot; ; font-size: medium&quot;&gt;烟草专卖许可证&lt;/span&gt;" style="text;html=1;strokeColor=none;fillColor=none;align=center;verticalAlign=middle;whiteSpace=wrap;rounded=0;fontColor=#CC6600;" vertex="1" parent="BGiYdShvEvHDMplZWwYh-1">
          <mxGeometry x="520" y="250" width="120" height="40" as="geometry"/>
        </mxCell>
        <mxCell id="BGiYdShvEvHDMplZWwYh-23" style="edgeStyle=orthogonalEdgeStyle;rounded=0;orthogonalLoop=1;jettySize=auto;html=1;exitX=0.5;exitY=0;exitDx=0;exitDy=0;entryX=0.497;entryY=1.056;entryDx=0;entryDy=0;entryPerimeter=0;fontColor=#CC6600;align=center;" edge="1" parent="BGiYdShvEvHDMplZWwYh-1" source="BGiYdShvEvHDMplZWwYh-19" target="BGiYdShvEvHDMplZWwYh-7">
          <mxGeometry relative="1" as="geometry"/>
        </mxCell>
        <mxCell id="BGiYdShvEvHDMplZWwYh-19" value="&lt;span style=&quot;font-family: &amp;#34;microsoft yahei&amp;#34; ; font-size: medium&quot;&gt;证件种类&lt;/span&gt;" style="text;html=1;strokeColor=none;fillColor=none;align=center;verticalAlign=middle;whiteSpace=wrap;rounded=0;fontColor=#CC6600;" vertex="1" parent="BGiYdShvEvHDMplZWwYh-1">
          <mxGeometry x="520" y="310" width="120" height="40" as="geometry"/>
        </mxCell>
        <mxCell id="BGiYdShvEvHDMplZWwYh-9" value="&lt;span style=&quot;font-family: &amp;quot;microsoft yahei&amp;quot; ; font-size: medium&quot;&gt;从事&lt;/span&gt;" style="text;html=1;strokeColor=none;fillColor=none;align=center;verticalAlign=middle;whiteSpace=wrap;rounded=0;" vertex="1" parent="BGiYdShvEvHDMplZWwYh-1">
          <mxGeometry x="69.71000000000001" y="250" width="40.29" height="40" as="geometry"/>
        </mxCell>
        <mxCell id="BGiYdShvEvHDMplZWwYh-10" value="&lt;span style=&quot;font-family: &amp;quot;microsoft yahei&amp;quot; ; font-size: medium&quot;&gt;业务的企业，必须持有&lt;/span&gt;" style="text;html=1;strokeColor=none;fillColor=none;align=center;verticalAlign=middle;whiteSpace=wrap;rounded=0;" vertex="1" parent="BGiYdShvEvHDMplZWwYh-1">
          <mxGeometry x="200" y="250" width="170" height="40" as="geometry"/>
        </mxCell>
        <mxCell id="BGiYdShvEvHDMplZWwYh-11" value="&lt;span style=&quot;font-family: &amp;quot;microsoft yahei&amp;quot; ; font-size: medium&quot;&gt;核发的&lt;/span&gt;" style="text;html=1;strokeColor=none;fillColor=none;align=center;verticalAlign=middle;whiteSpace=wrap;rounded=0;" vertex="1" parent="BGiYdShvEvHDMplZWwYh-1">
          <mxGeometry x="460" y="250" width="60" height="40" as="geometry"/>
        </mxCell>
        <mxCell id="BGiYdShvEvHDMplZWwYh-14" style="edgeStyle=orthogonalEdgeStyle;rounded=0;orthogonalLoop=1;jettySize=auto;html=1;exitX=0.5;exitY=0;exitDx=0;exitDy=0;entryX=0.5;entryY=1;entryDx=0;entryDy=0;fontColor=#CC6600;align=center;" edge="1" parent="BGiYdShvEvHDMplZWwYh-1" source="BGiYdShvEvHDMplZWwYh-13" target="BGiYdShvEvHDMplZWwYh-5">
          <mxGeometry relative="1" as="geometry"/>
        </mxCell>
        <mxCell id="BGiYdShvEvHDMplZWwYh-13" value="&lt;span style=&quot;font-family: &amp;quot;microsoft yahei&amp;quot; ; font-size: medium&quot;&gt;商品&lt;/span&gt;" style="text;html=1;strokeColor=none;fillColor=none;align=center;verticalAlign=middle;whiteSpace=wrap;rounded=0;fontColor=#00CC00;" vertex="1" parent="BGiYdShvEvHDMplZWwYh-1">
          <mxGeometry x="130" y="310" width="50" height="40" as="geometry"/>
        </mxCell>
        <mxCell id="BGiYdShvEvHDMplZWwYh-32" style="edgeStyle=orthogonalEdgeStyle;rounded=0;orthogonalLoop=1;jettySize=auto;html=1;exitX=0.5;exitY=0;exitDx=0;exitDy=0;entryX=0.5;entryY=1;entryDx=0;entryDy=0;fontSize=16;fontColor=#000000;align=center;strokeWidth=4;" edge="1" parent="BGiYdShvEvHDMplZWwYh-1" source="BGiYdShvEvHDMplZWwYh-25" target="BGiYdShvEvHDMplZWwYh-31">
          <mxGeometry relative="1" as="geometry"/>
        </mxCell>
        <mxCell id="BGiYdShvEvHDMplZWwYh-25" value="领域实体字典" style="shape=image;html=1;verticalAlign=top;verticalLabelPosition=bottom;labelBackgroundColor=#ffffff;imageAspect=0;aspect=fixed;image=https://cdn2.iconfinder.com/data/icons/rounded_square_icons__books_by_deleket-dexzmr/128/Dictionary_Mac.png;fontColor=#000000;align=center;fontSize=16;" vertex="1" parent="BGiYdShvEvHDMplZWwYh-1">
          <mxGeometry x="55.86" y="550.34" width="68" height="68" as="geometry"/>
        </mxCell>
        <mxCell id="BGiYdShvEvHDMplZWwYh-26" value="命&lt;br style=&quot;font-size: 17px;&quot;&gt;名&lt;br style=&quot;font-size: 17px;&quot;&gt;实&lt;br style=&quot;font-size: 17px;&quot;&gt;体&lt;br style=&quot;font-size: 17px;&quot;&gt;识&lt;br style=&quot;font-size: 17px;&quot;&gt;别" style="text;html=1;strokeColor=none;fillColor=none;align=center;verticalAlign=middle;whiteSpace=wrap;rounded=0;labelBackgroundColor=#ffffff;fontSize=17;fontColor=#000000;fontStyle=1" vertex="1" parent="BGiYdShvEvHDMplZWwYh-1">
          <mxGeometry x="10" y="255" width="40" height="90" as="geometry"/>
        </mxCell>
        <mxCell id="BGiYdShvEvHDMplZWwYh-35" style="edgeStyle=orthogonalEdgeStyle;rounded=0;orthogonalLoop=1;jettySize=auto;html=1;exitX=0.5;exitY=0;exitDx=0;exitDy=0;strokeWidth=4;fontSize=16;fontColor=#000000;align=center;" edge="1" parent="BGiYdShvEvHDMplZWwYh-1" source="BGiYdShvEvHDMplZWwYh-28">
          <mxGeometry relative="1" as="geometry">
            <mxPoint x="255" y="371" as="targetPoint"/>
          </mxGeometry>
        </mxCell>
        <mxCell id="BGiYdShvEvHDMplZWwYh-28" value="隐含马尔可夫&lt;br&gt;模型（HMM）" style="rounded=1;arcSize=10;dashed=1;strokeColor=#000000;fillColor=none;gradientColor=none;dashPattern=8 3 1 3;strokeWidth=2;labelBackgroundColor=#ffffff;fontSize=16;fontColor=#000000;html=1;" vertex="1" parent="BGiYdShvEvHDMplZWwYh-1">
          <mxGeometry x="200" y="441" width="110" height="66" as="geometry"/>
        </mxCell>
        <mxCell id="BGiYdShvEvHDMplZWwYh-36" style="edgeStyle=orthogonalEdgeStyle;rounded=0;orthogonalLoop=1;jettySize=auto;html=1;exitX=0.5;exitY=0;exitDx=0;exitDy=0;entryX=0.63;entryY=1.005;entryDx=0;entryDy=0;entryPerimeter=0;strokeWidth=4;fontSize=16;fontColor=#000000;align=center;" edge="1" parent="BGiYdShvEvHDMplZWwYh-1" source="BGiYdShvEvHDMplZWwYh-29" target="BGiYdShvEvHDMplZWwYh-24">
          <mxGeometry relative="1" as="geometry"/>
        </mxCell>
        <mxCell id="BGiYdShvEvHDMplZWwYh-29" value="条件随机场&lt;br&gt;（CRF）" style="rounded=1;arcSize=10;dashed=1;strokeColor=#000000;fillColor=none;gradientColor=none;dashPattern=8 3 1 3;strokeWidth=2;labelBackgroundColor=#ffffff;fontSize=16;fontColor=#000000;html=1;" vertex="1" parent="BGiYdShvEvHDMplZWwYh-1">
          <mxGeometry x="358.21" y="441" width="110" height="66" as="geometry"/>
        </mxCell>
        <mxCell id="BGiYdShvEvHDMplZWwYh-40" style="edgeStyle=orthogonalEdgeStyle;rounded=0;orthogonalLoop=1;jettySize=auto;html=1;exitX=0.5;exitY=0;exitDx=0;exitDy=0;entryX=0.899;entryY=1;entryDx=0;entryDy=0;entryPerimeter=0;strokeWidth=4;fontSize=17;fontColor=#000000;align=center;" edge="1" parent="BGiYdShvEvHDMplZWwYh-1" source="BGiYdShvEvHDMplZWwYh-30" target="BGiYdShvEvHDMplZWwYh-24">
          <mxGeometry relative="1" as="geometry"/>
        </mxCell>
        <mxCell id="BGiYdShvEvHDMplZWwYh-30" value="神经网络" style="rounded=1;arcSize=10;dashed=1;strokeColor=#000000;fillColor=none;gradientColor=none;dashPattern=8 3 1 3;strokeWidth=2;labelBackgroundColor=#ffffff;fontSize=16;fontColor=#000000;html=1;" vertex="1" parent="BGiYdShvEvHDMplZWwYh-1">
          <mxGeometry x="530" y="440" width="110" height="66" as="geometry"/>
        </mxCell>
        <mxCell id="BGiYdShvEvHDMplZWwYh-33" style="edgeStyle=orthogonalEdgeStyle;rounded=0;orthogonalLoop=1;jettySize=auto;html=1;exitX=0.5;exitY=0;exitDx=0;exitDy=0;entryX=0.125;entryY=1.005;entryDx=0;entryDy=0;entryPerimeter=0;strokeWidth=4;fontSize=16;fontColor=#000000;align=center;" edge="1" parent="BGiYdShvEvHDMplZWwYh-1" source="BGiYdShvEvHDMplZWwYh-31" target="BGiYdShvEvHDMplZWwYh-24">
          <mxGeometry relative="1" as="geometry"/>
        </mxCell>
        <mxCell id="BGiYdShvEvHDMplZWwYh-31" value="基于词典的&lt;br&gt;匹配方法" style="rounded=1;arcSize=10;dashed=1;strokeColor=#000000;fillColor=none;gradientColor=none;dashPattern=8 3 1 3;strokeWidth=2;labelBackgroundColor=#ffffff;fontSize=16;fontColor=#000000;html=1;" vertex="1" parent="BGiYdShvEvHDMplZWwYh-1">
          <mxGeometry x="34.86" y="440" width="110" height="66" as="geometry"/>
        </mxCell>
      </root>
    </mxGraphModel>
  </diagram>
  <diagram id="P00ZkzvzqnyVGr3V-3wt" name="Page-4">
    <mxGraphModel dx="934" dy="495" grid="1" gridSize="10" guides="1" tooltips="1" connect="1" arrows="1" fold="1" page="1" pageScale="1" pageWidth="827" pageHeight="1169" math="0" shadow="0">
      <root>
        <mxCell id="SiudNGV9gLKF1xJ3ZQok-0"/>
        <mxCell id="SiudNGV9gLKF1xJ3ZQok-1" parent="SiudNGV9gLKF1xJ3ZQok-0"/>
        <mxCell id="DqAz-ubC7gP-vj82SPH1-22" value="" style="rounded=0;whiteSpace=wrap;html=1;labelBackgroundColor=#ffffff;fontSize=17;fontColor=#000000;dashed=1;" vertex="1" parent="SiudNGV9gLKF1xJ3ZQok-1">
          <mxGeometry x="244.04" y="240" width="52.5" height="100" as="geometry"/>
        </mxCell>
        <mxCell id="DqAz-ubC7gP-vj82SPH1-21" value="" style="rounded=0;whiteSpace=wrap;html=1;labelBackgroundColor=#ffffff;fontSize=17;fontColor=#000000;dashed=1;" vertex="1" parent="SiudNGV9gLKF1xJ3ZQok-1">
          <mxGeometry x="142.79" y="240" width="45" height="100" as="geometry"/>
        </mxCell>
        <mxCell id="DqAz-ubC7gP-vj82SPH1-0" value="" style="rounded=0;whiteSpace=wrap;html=1;fontColor=#CC6600;align=center;" vertex="1" parent="SiudNGV9gLKF1xJ3ZQok-1">
          <mxGeometry x="40" y="200" width="570.29" height="160" as="geometry"/>
        </mxCell>
        <mxCell id="DqAz-ubC7gP-vj82SPH1-23" style="edgeStyle=orthogonalEdgeStyle;rounded=0;orthogonalLoop=1;jettySize=auto;html=1;exitX=0.5;exitY=0;exitDx=0;exitDy=0;strokeWidth=1;fontSize=17;fontColor=#000000;align=center;entryX=0.5;entryY=0;entryDx=0;entryDy=0;" edge="1" parent="SiudNGV9gLKF1xJ3ZQok-1" source="DqAz-ubC7gP-vj82SPH1-1" target="DqAz-ubC7gP-vj82SPH1-24">
          <mxGeometry relative="1" as="geometry">
            <mxPoint x="470.29" y="180" as="targetPoint"/>
          </mxGeometry>
        </mxCell>
        <mxCell id="DqAz-ubC7gP-vj82SPH1-1" value="&lt;span style=&quot;font-family: &amp;#34;microsoft yahei&amp;#34; ; font-size: medium&quot;&gt;在&lt;/span&gt;" style="text;html=1;strokeColor=none;fillColor=none;align=center;verticalAlign=middle;whiteSpace=wrap;rounded=0;fontColor=#00CC00;" vertex="1" parent="SiudNGV9gLKF1xJ3ZQok-1">
          <mxGeometry x="150.29" y="230" width="30" height="40" as="geometry"/>
        </mxCell>
        <mxCell id="DqAz-ubC7gP-vj82SPH1-18" value="&lt;span style=&quot;font-family: &amp;#34;microsoft yahei&amp;#34; ; font-size: medium&quot;&gt;介词&lt;/span&gt;" style="text;html=1;strokeColor=none;fillColor=none;align=center;verticalAlign=middle;whiteSpace=wrap;rounded=0;fontColor=#00CC00;" vertex="1" parent="SiudNGV9gLKF1xJ3ZQok-1">
          <mxGeometry x="145.29" y="300" width="40" height="40" as="geometry"/>
        </mxCell>
        <mxCell id="DqAz-ubC7gP-vj82SPH1-25" style="edgeStyle=orthogonalEdgeStyle;rounded=0;orthogonalLoop=1;jettySize=auto;html=1;exitX=0.5;exitY=0;exitDx=0;exitDy=0;entryX=0.5;entryY=0;entryDx=0;entryDy=0;strokeWidth=1;fontSize=17;fontColor=#000000;align=center;" edge="1" parent="SiudNGV9gLKF1xJ3ZQok-1" source="DqAz-ubC7gP-vj82SPH1-2" target="DqAz-ubC7gP-vj82SPH1-24">
          <mxGeometry relative="1" as="geometry"/>
        </mxCell>
        <mxCell id="DqAz-ubC7gP-vj82SPH1-2" value="&lt;span style=&quot;font-family: &amp;#34;microsoft yahei&amp;#34; ; font-size: medium&quot;&gt;创办了&lt;/span&gt;" style="text;html=1;strokeColor=none;fillColor=none;align=center;verticalAlign=middle;whiteSpace=wrap;rounded=0;fontColor=#FF0000;" vertex="1" parent="SiudNGV9gLKF1xJ3ZQok-1">
          <mxGeometry x="240.29" y="230" width="60" height="40" as="geometry"/>
        </mxCell>
        <mxCell id="DqAz-ubC7gP-vj82SPH1-3" style="edgeStyle=orthogonalEdgeStyle;rounded=0;orthogonalLoop=1;jettySize=auto;html=1;exitX=0.5;exitY=0;exitDx=0;exitDy=0;entryX=0.5;entryY=1;entryDx=0;entryDy=0;fontColor=#CC6600;align=center;" edge="1" parent="SiudNGV9gLKF1xJ3ZQok-1" source="DqAz-ubC7gP-vj82SPH1-4" target="DqAz-ubC7gP-vj82SPH1-2">
          <mxGeometry relative="1" as="geometry"/>
        </mxCell>
        <mxCell id="DqAz-ubC7gP-vj82SPH1-4" value="&lt;span style=&quot;font-family: &amp;#34;microsoft yahei&amp;#34; ; font-size: medium&quot;&gt;动词&lt;/span&gt;" style="text;html=1;strokeColor=none;fillColor=none;align=center;verticalAlign=middle;whiteSpace=wrap;rounded=0;fontColor=#FF0000;" vertex="1" parent="SiudNGV9gLKF1xJ3ZQok-1">
          <mxGeometry x="225.29" y="300" width="90" height="40" as="geometry"/>
        </mxCell>
        <mxCell id="DqAz-ubC7gP-vj82SPH1-8" value="&lt;span style=&quot;font-family: &amp;#34;microsoft yahei&amp;#34; ; font-size: medium&quot;&gt;马云&lt;/span&gt;" style="text;html=1;strokeColor=none;fillColor=none;align=center;verticalAlign=middle;whiteSpace=wrap;rounded=0;" vertex="1" parent="SiudNGV9gLKF1xJ3ZQok-1">
          <mxGeometry x="95.14000000000001" y="230" width="40.29" height="40" as="geometry"/>
        </mxCell>
        <mxCell id="DqAz-ubC7gP-vj82SPH1-9" value="&lt;span style=&quot;font-family: &amp;#34;microsoft yahei&amp;#34; ; font-size: medium&quot;&gt;杭州&lt;/span&gt;" style="text;html=1;strokeColor=none;fillColor=none;align=center;verticalAlign=middle;whiteSpace=wrap;rounded=0;" vertex="1" parent="SiudNGV9gLKF1xJ3ZQok-1">
          <mxGeometry x="190.29" y="230" width="50" height="40" as="geometry"/>
        </mxCell>
        <mxCell id="DqAz-ubC7gP-vj82SPH1-10" value="&lt;span style=&quot;font-family: &amp;#34;microsoft yahei&amp;#34; ; font-size: medium&quot;&gt;阿里巴巴&lt;/span&gt;" style="text;html=1;strokeColor=none;fillColor=none;align=center;verticalAlign=middle;whiteSpace=wrap;rounded=0;" vertex="1" parent="SiudNGV9gLKF1xJ3ZQok-1">
          <mxGeometry x="300.29" y="230" width="70" height="40" as="geometry"/>
        </mxCell>
        <mxCell id="DqAz-ubC7gP-vj82SPH1-11" style="edgeStyle=orthogonalEdgeStyle;rounded=0;orthogonalLoop=1;jettySize=auto;html=1;exitX=0.5;exitY=0;exitDx=0;exitDy=0;entryX=0.5;entryY=1;entryDx=0;entryDy=0;fontColor=#CC6600;align=center;" edge="1" parent="SiudNGV9gLKF1xJ3ZQok-1" source="DqAz-ubC7gP-vj82SPH1-12" target="DqAz-ubC7gP-vj82SPH1-8">
          <mxGeometry relative="1" as="geometry"/>
        </mxCell>
        <mxCell id="DqAz-ubC7gP-vj82SPH1-12" value="&lt;span style=&quot;font-family: &amp;quot;microsoft yahei&amp;quot; ; font-size: medium&quot;&gt;名词&lt;/span&gt;" style="text;html=1;strokeColor=none;fillColor=none;align=center;verticalAlign=middle;whiteSpace=wrap;rounded=0;fontColor=#000000;" vertex="1" parent="SiudNGV9gLKF1xJ3ZQok-1">
          <mxGeometry x="90.28999999999999" y="300" width="50" height="40" as="geometry"/>
        </mxCell>
        <mxCell id="DqAz-ubC7gP-vj82SPH1-13" value="依&lt;br&gt;存&lt;br&gt;关&lt;br&gt;系&lt;br&gt;模&lt;br&gt;型" style="text;html=1;strokeColor=none;fillColor=none;align=center;verticalAlign=middle;whiteSpace=wrap;rounded=0;labelBackgroundColor=#ffffff;fontSize=17;fontColor=#000000;fontStyle=1" vertex="1" parent="SiudNGV9gLKF1xJ3ZQok-1">
          <mxGeometry x="40" y="240" width="40" height="90" as="geometry"/>
        </mxCell>
        <mxCell id="DqAz-ubC7gP-vj82SPH1-16" style="edgeStyle=orthogonalEdgeStyle;rounded=0;orthogonalLoop=1;jettySize=auto;html=1;exitX=0.5;exitY=0;exitDx=0;exitDy=0;entryX=0.5;entryY=1;entryDx=0;entryDy=0;fontSize=11;fontColor=#CC6600;align=center;" edge="1" parent="SiudNGV9gLKF1xJ3ZQok-1" source="DqAz-ubC7gP-vj82SPH1-14" target="DqAz-ubC7gP-vj82SPH1-9">
          <mxGeometry relative="1" as="geometry"/>
        </mxCell>
        <mxCell id="DqAz-ubC7gP-vj82SPH1-14" value="&lt;span style=&quot;font-family: &amp;quot;microsoft yahei&amp;quot; ; font-size: medium&quot;&gt;名词&lt;/span&gt;" style="text;html=1;strokeColor=none;fillColor=none;align=center;verticalAlign=middle;whiteSpace=wrap;rounded=0;fontColor=#000000;" vertex="1" parent="SiudNGV9gLKF1xJ3ZQok-1">
          <mxGeometry x="190.29" y="300" width="50" height="40" as="geometry"/>
        </mxCell>
        <mxCell id="DqAz-ubC7gP-vj82SPH1-17" style="edgeStyle=orthogonalEdgeStyle;rounded=0;orthogonalLoop=1;jettySize=auto;html=1;exitX=0.5;exitY=0;exitDx=0;exitDy=0;entryX=0.5;entryY=1;entryDx=0;entryDy=0;fontSize=11;fontColor=#CC6600;align=center;" edge="1" parent="SiudNGV9gLKF1xJ3ZQok-1" source="DqAz-ubC7gP-vj82SPH1-15" target="DqAz-ubC7gP-vj82SPH1-10">
          <mxGeometry relative="1" as="geometry"/>
        </mxCell>
        <mxCell id="DqAz-ubC7gP-vj82SPH1-15" value="&lt;span style=&quot;font-family: &amp;quot;microsoft yahei&amp;quot; ; font-size: medium&quot;&gt;名词&lt;/span&gt;" style="text;html=1;strokeColor=none;fillColor=none;align=center;verticalAlign=middle;whiteSpace=wrap;rounded=0;fontColor=#000000;" vertex="1" parent="SiudNGV9gLKF1xJ3ZQok-1">
          <mxGeometry x="310.29" y="300" width="50" height="40" as="geometry"/>
        </mxCell>
        <mxCell id="DqAz-ubC7gP-vj82SPH1-20" style="edgeStyle=orthogonalEdgeStyle;rounded=0;orthogonalLoop=1;jettySize=auto;html=1;exitX=0.5;exitY=0;exitDx=0;exitDy=0;entryX=0.5;entryY=1;entryDx=0;entryDy=0;fontSize=11;fontColor=#CC6600;align=center;" edge="1" parent="SiudNGV9gLKF1xJ3ZQok-1" source="DqAz-ubC7gP-vj82SPH1-18" target="DqAz-ubC7gP-vj82SPH1-1">
          <mxGeometry relative="1" as="geometry">
            <mxPoint x="225.29" y="310" as="sourcePoint"/>
            <mxPoint x="225.29" y="280" as="targetPoint"/>
          </mxGeometry>
        </mxCell>
        <mxCell id="DqAz-ubC7gP-vj82SPH1-24" value="依存关系：在...创办了" style="text;html=1;strokeColor=none;fillColor=none;align=center;verticalAlign=middle;whiteSpace=wrap;rounded=0;dashed=1;labelBackgroundColor=#ffffff;fontSize=17;fontColor=#000000;" vertex="1" parent="SiudNGV9gLKF1xJ3ZQok-1">
          <mxGeometry x="410.29" y="270" width="190" height="20" as="geometry"/>
        </mxCell>
      </root>
    </mxGraphModel>
  </diagram>
</mxfile>
